<svg width="1440" height="968" viewBox="0 0 1440 968" fill="none" xmlns="http://www.w3.org/2000/svg">
<path d="M50.1876 0.81209C50.1876 1.26059 49.7555 1.62418 49.2224 1.62418C48.6894 1.62418 48.2573 1.26059 48.2573 0.81209C48.2573 0.363585 48.6894 0 49.2224 0C49.7555 0 50.1876 0.363585 50.1876 0.81209Z" fill="#13B3EF"/>
<path d="M194.96 0.81209C194.96 1.26059 194.528 1.62418 193.995 1.62418C193.462 1.62418 193.029 1.26059 193.029 0.81209C193.029 0.363585 193.462 0 193.995 0C194.528 0 194.96 0.363585 194.96 0.81209Z" fill="#13B3EF"/>
<path d="M339.732 0.81209C339.732 1.26059 339.3 1.62418 338.767 1.62418C338.234 1.62418 337.802 1.26059 337.802 0.81209C337.802 0.363585 338.234 0 338.767 0C339.3 0 339.732 0.363585 339.732 0.81209Z" fill="#13B3EF"/>
<path d="M484.504 0.81209C484.504 1.26059 484.072 1.62418 483.539 1.62418C483.006 1.62418 482.573 1.26059 482.573 0.81209C482.573 0.363585 483.006 0 483.539 0C484.072 0 484.504 0.363585 484.504 0.81209Z" fill="#13B3EF"/>
<path d="M629.276 0.81209C629.276 1.26059 628.844 1.62418 628.311 1.62418C627.778 1.62418 627.346 1.26059 627.346 0.81209C627.346 0.363585 627.778 0 628.311 0C628.844 0 629.276 0.363585 629.276 0.81209Z" fill="#13B3EF"/>
<path d="M774.048 0.81209C774.048 1.26059 773.616 1.62418 773.083 1.62418C772.55 1.62418 772.118 1.26059 772.118 0.81209C772.118 0.363585 772.55 0 773.083 0C773.616 0 774.048 0.363585 774.048 0.81209Z" fill="#13B3EF"/>
<path d="M918.82 0.81209C918.82 1.26059 918.388 1.62418 917.855 1.62418C917.322 1.62418 916.89 1.26059 916.89 0.81209C916.89 0.363585 917.322 0 917.855 0C918.388 0 918.82 0.363585 918.82 0.81209Z" fill="#13B3EF"/>
<path d="M1063.59 0.81209C1063.59 1.26059 1063.16 1.62418 1062.63 1.62418C1062.09 1.62418 1061.66 1.26059 1061.66 0.81209C1061.66 0.363585 1062.09 0 1062.63 0C1063.16 0 1063.59 0.363585 1063.59 0.81209Z" fill="#13B3EF"/>
<path d="M1208.36 0.81209C1208.36 1.26059 1207.93 1.62418 1207.4 1.62418C1206.87 1.62418 1206.43 1.26059 1206.43 0.81209C1206.43 0.363585 1206.87 0 1207.4 0C1207.93 0 1208.36 0.363585 1208.36 0.81209Z" fill="#13B3EF"/>
<path d="M1353.14 0.81209C1353.14 1.26059 1352.7 1.62418 1352.17 1.62418C1351.64 1.62418 1351.21 1.26059 1351.21 0.81209C1351.21 0.363585 1351.64 0 1352.17 0C1352.7 0 1353.14 0.363585 1353.14 0.81209Z" fill="#13B3EF"/>
<path d="M98.4452 47.6786C98.4452 48.1271 98.0131 48.4907 97.48 48.4907C96.947 48.4907 96.5149 48.1271 96.5149 47.6786C96.5149 47.2301 96.947 46.8665 97.48 46.8665C98.0131 46.8665 98.4452 47.2301 98.4452 47.6786Z" fill="#13B3EF"/>
<path d="M243.217 47.6786C243.217 48.1271 242.785 48.4907 242.252 48.4907C241.719 48.4907 241.287 48.1271 241.287 47.6786C241.287 47.2301 241.719 46.8665 242.252 46.8665C242.785 46.8665 243.217 47.2301 243.217 47.6786Z" fill="#13B3EF"/>
<path d="M387.989 47.6786C387.989 48.1271 387.557 48.4907 387.024 48.4907C386.491 48.4907 386.059 48.1271 386.059 47.6786C386.059 47.2301 386.491 46.8665 387.024 46.8665C387.557 46.8665 387.989 47.2301 387.989 47.6786Z" fill="#13B3EF"/>
<path d="M532.761 47.6786C532.761 48.1271 532.329 48.4907 531.796 48.4907C531.263 48.4907 530.831 48.1271 530.831 47.6786C530.831 47.2301 531.263 46.8665 531.796 46.8665C532.329 46.8665 532.761 47.2301 532.761 47.6786Z" fill="#13B3EF"/>
<path d="M677.534 47.6786C677.534 48.1271 677.102 48.4907 676.569 48.4907C676.036 48.4907 675.604 48.1271 675.604 47.6786C675.604 47.2301 676.036 46.8665 676.569 46.8665C677.102 46.8665 677.534 47.2301 677.534 47.6786Z" fill="#13B3EF"/>
<path d="M822.306 47.6786C822.306 48.1271 821.874 48.4907 821.341 48.4907C820.808 48.4907 820.376 48.1271 820.376 47.6786C820.376 47.2301 820.808 46.8665 821.341 46.8665C821.874 46.8665 822.306 47.2301 822.306 47.6786Z" fill="#13B3EF"/>
<path d="M967.078 47.6786C967.078 48.1271 966.646 48.4907 966.113 48.4907C965.58 48.4907 965.148 48.1271 965.148 47.6786C965.148 47.2301 965.58 46.8665 966.113 46.8665C966.646 46.8665 967.078 47.2301 967.078 47.6786Z" fill="#13B3EF"/>
<path d="M1111.85 47.6786C1111.85 48.1271 1111.42 48.4907 1110.88 48.4907C1110.35 48.4907 1109.92 48.1271 1109.92 47.6786C1109.92 47.2301 1110.35 46.8665 1110.88 46.8665C1111.42 46.8665 1111.85 47.2301 1111.85 47.6786Z" fill="#13B3EF"/>
<path d="M1256.62 47.6786C1256.62 48.1271 1256.19 48.4907 1255.66 48.4907C1255.12 48.4907 1254.69 48.1271 1254.69 47.6786C1254.69 47.2301 1255.12 46.8665 1255.66 46.8665C1256.19 46.8665 1256.62 47.2301 1256.62 47.6786Z" fill="#13B3EF"/>
<path d="M1401.39 47.6786C1401.39 48.1271 1400.96 48.4907 1400.43 48.4907C1399.9 48.4907 1399.46 48.1271 1399.46 47.6786C1399.46 47.2301 1399.9 46.8665 1400.43 46.8665C1400.96 46.8665 1401.39 47.2301 1401.39 47.6786Z" fill="#13B3EF"/>
<path d="M11.5819 94.5451C11.5819 94.9936 11.1498 95.3572 10.6168 95.3572C10.0837 95.3572 9.65161 94.9936 9.65161 94.5451C9.65161 94.0966 10.0837 93.733 10.6168 93.733C11.1498 93.733 11.5819 94.0966 11.5819 94.5451Z" fill="#13B3EF"/>
<path d="M156.354 94.5451C156.354 94.9936 155.922 95.3572 155.389 95.3572C154.856 95.3572 154.424 94.9936 154.424 94.5451C154.424 94.0966 154.856 93.733 155.389 93.733C155.922 93.733 156.354 94.0966 156.354 94.5451Z" fill="#13B3EF"/>
<path d="M301.126 94.5451C301.126 94.9936 300.694 95.3572 300.161 95.3572C299.628 95.3572 299.196 94.9936 299.196 94.5451C299.196 94.0966 299.628 93.733 300.161 93.733C300.694 93.733 301.126 94.0966 301.126 94.5451Z" fill="#13B3EF"/>
<path d="M445.898 94.5451C445.898 94.9936 445.466 95.3572 444.933 95.3572C444.4 95.3572 443.968 94.9936 443.968 94.5451C443.968 94.0966 444.4 93.733 444.933 93.733C445.466 93.733 445.898 94.0966 445.898 94.5451Z" fill="#13B3EF"/>
<path d="M590.67 94.5451C590.67 94.9936 590.238 95.3572 589.705 95.3572C589.172 95.3572 588.74 94.9936 588.74 94.5451C588.74 94.0966 589.172 93.733 589.705 93.733C590.238 93.733 590.67 94.0966 590.67 94.5451Z" fill="#13B3EF"/>
<path d="M735.442 94.5451C735.442 94.9936 735.01 95.3572 734.477 95.3572C733.944 95.3572 733.512 94.9936 733.512 94.5451C733.512 94.0966 733.944 93.733 734.477 93.733C735.01 93.733 735.442 94.0966 735.442 94.5451Z" fill="#13B3EF"/>
<path d="M880.215 94.5451C880.215 94.9936 879.782 95.3572 879.249 95.3572C878.716 95.3572 878.284 94.9936 878.284 94.5451C878.284 94.0966 878.716 93.733 879.249 93.733C879.782 93.733 880.215 94.0966 880.215 94.5451Z" fill="#13B3EF"/>
<path d="M1024.99 94.5451C1024.99 94.9936 1024.55 95.3572 1024.02 95.3572C1023.49 95.3572 1023.06 94.9936 1023.06 94.5451C1023.06 94.0966 1023.49 93.733 1024.02 93.733C1024.55 93.733 1024.99 94.0966 1024.99 94.5451Z" fill="#13B3EF"/>
<path d="M1169.76 94.5451C1169.76 94.9936 1169.33 95.3572 1168.79 95.3572C1168.26 95.3572 1167.83 94.9936 1167.83 94.5451C1167.83 94.0966 1168.26 93.733 1168.79 93.733C1169.33 93.733 1169.76 94.0966 1169.76 94.5451Z" fill="#13B3EF"/>
<path d="M1314.53 94.5451C1314.53 94.9936 1314.1 95.3572 1313.57 95.3572C1313.03 95.3572 1312.6 94.9936 1312.6 94.5451C1312.6 94.0966 1313.03 93.733 1313.57 93.733C1314.1 93.733 1314.53 94.0966 1314.53 94.5451Z" fill="#13B3EF"/>
<path d="M1.93029 141.412C1.93029 141.86 1.49818 142.224 0.965146 142.224C0.432111 142.224 0 141.86 0 141.412C0 140.963 0.432111 140.6 0.965146 140.6C1.49818 140.6 1.93029 140.963 1.93029 141.412Z" fill="#13B3EF"/>
<path d="M146.703 141.412C146.703 141.86 146.27 142.224 145.737 142.224C145.204 142.224 144.772 141.86 144.772 141.412C144.772 140.963 145.204 140.6 145.737 140.6C146.27 140.6 146.703 140.963 146.703 141.412Z" fill="#13B3EF"/>
<path d="M291.475 141.412C291.475 141.86 291.042 142.224 290.509 142.224C289.976 142.224 289.544 141.86 289.544 141.412C289.544 140.963 289.976 140.6 290.509 140.6C291.042 140.6 291.475 140.963 291.475 141.412Z" fill="#13B3EF"/>
<path d="M436.246 141.412C436.246 141.86 435.814 142.224 435.281 142.224C434.748 142.224 434.316 141.86 434.316 141.412C434.316 140.963 434.748 140.6 435.281 140.6C435.814 140.6 436.246 140.963 436.246 141.412Z" fill="#13B3EF"/>
<path d="M581.019 141.412C581.019 141.86 580.587 142.224 580.054 142.224C579.521 142.224 579.089 141.86 579.089 141.412C579.089 140.963 579.521 140.6 580.054 140.6C580.587 140.6 581.019 140.963 581.019 141.412Z" fill="#13B3EF"/>
<path d="M725.791 141.412C725.791 141.86 725.359 142.224 724.826 142.224C724.293 142.224 723.861 141.86 723.861 141.412C723.861 140.963 724.293 140.6 724.826 140.6C725.359 140.6 725.791 140.963 725.791 141.412Z" fill="#13B3EF"/>
<path d="M870.563 141.412C870.563 141.86 870.131 142.224 869.598 142.224C869.065 142.224 868.633 141.86 868.633 141.412C868.633 140.963 869.065 140.6 869.598 140.6C870.131 140.6 870.563 140.963 870.563 141.412Z" fill="#13B3EF"/>
<path d="M1015.34 141.412C1015.34 141.86 1014.9 142.224 1014.37 142.224C1013.84 142.224 1013.4 141.86 1013.4 141.412C1013.4 140.963 1013.84 140.6 1014.37 140.6C1014.9 140.6 1015.34 140.963 1015.34 141.412Z" fill="#13B3EF"/>
<path d="M1160.11 141.412C1160.11 141.86 1159.68 142.224 1159.14 142.224C1158.61 142.224 1158.18 141.86 1158.18 141.412C1158.18 140.963 1158.61 140.6 1159.14 140.6C1159.68 140.6 1160.11 140.963 1160.11 141.412Z" fill="#13B3EF"/>
<path d="M1304.88 141.412C1304.88 141.86 1304.45 142.224 1303.91 142.224C1303.38 142.224 1302.95 141.86 1302.95 141.412C1302.95 140.963 1303.38 140.6 1303.91 140.6C1304.45 140.6 1304.88 140.963 1304.88 141.412Z" fill="#13B3EF"/>
<path d="M69.4906 188.278C69.4906 188.727 69.0585 189.09 68.5255 189.09C67.9924 189.09 67.5603 188.727 67.5603 188.278C67.5603 187.83 67.9924 187.466 68.5255 187.466C69.0585 187.466 69.4906 187.83 69.4906 188.278Z" fill="#13B3EF"/>
<path d="M214.263 188.278C214.263 188.727 213.831 189.09 213.297 189.09C212.764 189.09 212.332 188.727 212.332 188.278C212.332 187.83 212.764 187.466 213.297 187.466C213.831 187.466 214.263 187.83 214.263 188.278Z" fill="#13B3EF"/>
<path d="M359.035 188.278C359.035 188.727 358.603 189.09 358.07 189.09C357.537 189.09 357.105 188.727 357.105 188.278C357.105 187.83 357.537 187.466 358.07 187.466C358.603 187.466 359.035 187.83 359.035 188.278Z" fill="#13B3EF"/>
<path d="M503.807 188.278C503.807 188.727 503.375 189.09 502.842 189.09C502.309 189.09 501.877 188.727 501.877 188.278C501.877 187.83 502.309 187.466 502.842 187.466C503.375 187.466 503.807 187.83 503.807 188.278Z" fill="#13B3EF"/>
<path d="M648.579 188.278C648.579 188.727 648.147 189.09 647.614 189.09C647.081 189.09 646.649 188.727 646.649 188.278C646.649 187.83 647.081 187.466 647.614 187.466C648.147 187.466 648.579 187.83 648.579 188.278Z" fill="#13B3EF"/>
<path d="M793.351 188.278C793.351 188.727 792.919 189.09 792.386 189.09C791.853 189.09 791.421 188.727 791.421 188.278C791.421 187.83 791.853 187.466 792.386 187.466C792.919 187.466 793.351 187.83 793.351 188.278Z" fill="#13B3EF"/>
<path d="M938.124 188.278C938.124 188.727 937.691 189.09 937.158 189.09C936.625 189.09 936.193 188.727 936.193 188.278C936.193 187.83 936.625 187.466 937.158 187.466C937.691 187.466 938.124 187.83 938.124 188.278Z" fill="#13B3EF"/>
<path d="M1082.9 188.278C1082.9 188.727 1082.46 189.09 1081.93 189.09C1081.4 189.09 1080.97 188.727 1080.97 188.278C1080.97 187.83 1081.4 187.466 1081.93 187.466C1082.46 187.466 1082.9 187.83 1082.9 188.278Z" fill="#13B3EF"/>
<path d="M1227.67 188.278C1227.67 188.727 1227.24 189.09 1226.7 189.09C1226.17 189.09 1225.74 188.727 1225.74 188.278C1225.74 187.83 1226.17 187.466 1226.7 187.466C1227.24 187.466 1227.67 187.83 1227.67 188.278Z" fill="#13B3EF"/>
<path d="M1372.44 188.278C1372.44 188.727 1372.01 189.09 1371.47 189.09C1370.94 189.09 1370.51 188.727 1370.51 188.278C1370.51 187.83 1370.94 187.466 1371.47 187.466C1372.01 187.466 1372.44 187.83 1372.44 188.278Z" fill="#13B3EF"/>
<path d="M40.5363 235.145C40.5363 235.593 40.1042 235.957 39.5711 235.957C39.0381 235.957 38.606 235.593 38.606 235.145C38.606 234.696 39.0381 234.333 39.5711 234.333C40.1042 234.333 40.5363 234.696 40.5363 235.145Z" fill="#13B3EF"/>
<path d="M185.308 235.145C185.308 235.593 184.876 235.957 184.343 235.957C183.81 235.957 183.378 235.593 183.378 235.145C183.378 234.696 183.81 234.333 184.343 234.333C184.876 234.333 185.308 234.696 185.308 235.145Z" fill="#13B3EF"/>
<path d="M330.08 235.145C330.08 235.593 329.648 235.957 329.115 235.957C328.582 235.957 328.15 235.593 328.15 235.145C328.15 234.696 328.582 234.333 329.115 234.333C329.648 234.333 330.08 234.696 330.08 235.145Z" fill="#13B3EF"/>
<path d="M474.853 235.145C474.853 235.593 474.42 235.957 473.887 235.957C473.354 235.957 472.922 235.593 472.922 235.145C472.922 234.696 473.354 234.333 473.887 234.333C474.42 234.333 474.853 234.696 474.853 235.145Z" fill="#13B3EF"/>
<path d="M619.625 235.145C619.625 235.593 619.193 235.957 618.66 235.957C618.127 235.957 617.694 235.593 617.694 235.145C617.694 234.696 618.127 234.333 618.66 234.333C619.193 234.333 619.625 234.696 619.625 235.145Z" fill="#13B3EF"/>
<path d="M764.397 235.145C764.397 235.593 763.965 235.957 763.432 235.957C762.899 235.957 762.467 235.593 762.467 235.145C762.467 234.696 762.899 234.333 763.432 234.333C763.965 234.333 764.397 234.696 764.397 235.145Z" fill="#13B3EF"/>
<path d="M909.169 235.145C909.169 235.593 908.737 235.957 908.204 235.957C907.671 235.957 907.239 235.593 907.239 235.145C907.239 234.696 907.671 234.333 908.204 234.333C908.737 234.333 909.169 234.696 909.169 235.145Z" fill="#13B3EF"/>
<path d="M1053.94 235.145C1053.94 235.593 1053.51 235.957 1052.98 235.957C1052.44 235.957 1052.01 235.593 1052.01 235.145C1052.01 234.696 1052.44 234.333 1052.98 234.333C1053.51 234.333 1053.94 234.696 1053.94 235.145Z" fill="#13B3EF"/>
<path d="M1198.71 235.145C1198.71 235.593 1198.28 235.957 1197.75 235.957C1197.21 235.957 1196.78 235.593 1196.78 235.145C1196.78 234.696 1197.21 234.333 1197.75 234.333C1198.28 234.333 1198.71 234.696 1198.71 235.145Z" fill="#13B3EF"/>
<path d="M1343.49 235.145C1343.49 235.593 1343.05 235.957 1342.52 235.957C1341.99 235.957 1341.56 235.593 1341.56 235.145C1341.56 234.696 1341.99 234.333 1342.52 234.333C1343.05 234.333 1343.49 234.696 1343.49 235.145Z" fill="#13B3EF"/>
<path d="M69.4906 282.011C69.4906 282.46 69.0585 282.823 68.5255 282.823C67.9924 282.823 67.5603 282.46 67.5603 282.011C67.5603 281.563 67.9924 281.199 68.5255 281.199C69.0585 281.199 69.4906 281.563 69.4906 282.011Z" fill="#13B3EF"/>
<path d="M214.263 282.011C214.263 282.46 213.831 282.823 213.297 282.823C212.764 282.823 212.332 282.46 212.332 282.011C212.332 281.563 212.764 281.199 213.297 281.199C213.831 281.199 214.263 281.563 214.263 282.011Z" fill="#13B3EF"/>
<path d="M359.035 282.011C359.035 282.46 358.603 282.823 358.07 282.823C357.537 282.823 357.105 282.46 357.105 282.011C357.105 281.563 357.537 281.199 358.07 281.199C358.603 281.199 359.035 281.563 359.035 282.011Z" fill="#13B3EF"/>
<path d="M503.807 282.011C503.807 282.46 503.375 282.823 502.842 282.823C502.309 282.823 501.877 282.46 501.877 282.011C501.877 281.563 502.309 281.199 502.842 281.199C503.375 281.199 503.807 281.563 503.807 282.011Z" fill="#13B3EF"/>
<path d="M648.579 282.011C648.579 282.46 648.147 282.823 647.614 282.823C647.081 282.823 646.649 282.46 646.649 282.011C646.649 281.563 647.081 281.199 647.614 281.199C648.147 281.199 648.579 281.563 648.579 282.011Z" fill="#13B3EF"/>
<path d="M793.351 282.011C793.351 282.46 792.919 282.823 792.386 282.823C791.853 282.823 791.421 282.46 791.421 282.011C791.421 281.563 791.853 281.199 792.386 281.199C792.919 281.199 793.351 281.563 793.351 282.011Z" fill="#13B3EF"/>
<path d="M938.124 282.011C938.124 282.46 937.691 282.823 937.158 282.823C936.625 282.823 936.193 282.46 936.193 282.011C936.193 281.563 936.625 281.199 937.158 281.199C937.691 281.199 938.124 281.563 938.124 282.011Z" fill="#13B3EF"/>
<path d="M1082.9 282.011C1082.9 282.46 1082.46 282.823 1081.93 282.823C1081.4 282.823 1080.97 282.46 1080.97 282.011C1080.97 281.563 1081.4 281.199 1081.93 281.199C1082.46 281.199 1082.9 281.563 1082.9 282.011Z" fill="#13B3EF"/>
<path d="M1227.67 282.011C1227.67 282.46 1227.24 282.823 1226.7 282.823C1226.17 282.823 1225.74 282.46 1225.74 282.011C1225.74 281.563 1226.17 281.199 1226.7 281.199C1227.24 281.199 1227.67 281.563 1227.67 282.011Z" fill="#13B3EF"/>
<path d="M1372.44 282.011C1372.44 282.46 1372.01 282.823 1371.47 282.823C1370.94 282.823 1370.51 282.46 1370.51 282.011C1370.51 281.563 1370.94 281.199 1371.47 281.199C1372.01 281.199 1372.44 281.563 1372.44 282.011Z" fill="#13B3EF"/>
<path d="M21.2335 329.815C21.2335 330.263 20.8014 330.627 20.2684 330.627C19.7353 330.627 19.3032 330.263 19.3032 329.815C19.3032 329.366 19.7353 329.003 20.2684 329.003C20.8014 329.003 21.2335 329.366 21.2335 329.815Z" fill="#13B3EF"/>
<path d="M166.005 329.815C166.005 330.263 165.573 330.627 165.04 330.627C164.507 330.627 164.075 330.263 164.075 329.815C164.075 329.366 164.507 329.003 165.04 329.003C165.573 329.003 166.005 329.366 166.005 329.815Z" fill="#13B3EF"/>
<path d="M310.777 329.815C310.777 330.263 310.345 330.627 309.812 330.627C309.279 330.627 308.847 330.263 308.847 329.815C308.847 329.366 309.279 329.003 309.812 329.003C310.345 329.003 310.777 329.366 310.777 329.815Z" fill="#13B3EF"/>
<path d="M455.55 329.815C455.55 330.263 455.117 330.627 454.584 330.627C454.051 330.627 453.619 330.263 453.619 329.815C453.619 329.366 454.051 329.003 454.584 329.003C455.117 329.003 455.55 329.366 455.55 329.815Z" fill="#13B3EF"/>
<path d="M600.321 329.815C600.321 330.263 599.889 330.627 599.356 330.627C598.823 330.627 598.391 330.263 598.391 329.815C598.391 329.366 598.823 329.003 599.356 329.003C599.889 329.003 600.321 329.366 600.321 329.815Z" fill="#13B3EF"/>
<path d="M745.094 329.815C745.094 330.263 744.662 330.627 744.129 330.627C743.596 330.627 743.163 330.263 743.163 329.815C743.163 329.366 743.596 329.003 744.129 329.003C744.662 329.003 745.094 329.366 745.094 329.815Z" fill="#13B3EF"/>
<path d="M889.866 329.815C889.866 330.263 889.434 330.627 888.901 330.627C888.368 330.627 887.936 330.263 887.936 329.815C887.936 329.366 888.368 329.003 888.901 329.003C889.434 329.003 889.866 329.366 889.866 329.815Z" fill="#13B3EF"/>
<path d="M1034.64 329.815C1034.64 330.263 1034.21 330.627 1033.67 330.627C1033.14 330.627 1032.71 330.263 1032.71 329.815C1032.71 329.366 1033.14 329.003 1033.67 329.003C1034.21 329.003 1034.64 329.366 1034.64 329.815Z" fill="#13B3EF"/>
<path d="M1179.41 329.815C1179.41 330.263 1178.98 330.627 1178.45 330.627C1177.91 330.627 1177.48 330.263 1177.48 329.815C1177.48 329.366 1177.91 329.003 1178.45 329.003C1178.98 329.003 1179.41 329.366 1179.41 329.815Z" fill="#13B3EF"/>
<path d="M1324.18 329.815C1324.18 330.263 1323.75 330.627 1323.22 330.627C1322.68 330.627 1322.25 330.263 1322.25 329.815C1322.25 329.366 1322.68 329.003 1323.22 329.003C1323.75 329.003 1324.18 329.366 1324.18 329.815Z" fill="#13B3EF"/>
<path d="M79.1422 376.681C79.1422 377.13 78.7101 377.493 78.1771 377.493C77.644 377.493 77.2119 377.13 77.2119 376.681C77.2119 376.233 77.644 375.869 78.1771 375.869C78.7101 375.869 79.1422 376.233 79.1422 376.681Z" fill="#13B3EF"/>
<path d="M223.914 376.681C223.914 377.13 223.482 377.493 222.949 377.493C222.416 377.493 221.984 377.13 221.984 376.681C221.984 376.233 222.416 375.869 222.949 375.869C223.482 375.869 223.914 376.233 223.914 376.681Z" fill="#13B3EF"/>
<path d="M368.687 376.681C368.687 377.13 368.254 377.493 367.721 377.493C367.188 377.493 366.756 377.13 366.756 376.681C366.756 376.233 367.188 375.869 367.721 375.869C368.254 375.869 368.687 376.233 368.687 376.681Z" fill="#13B3EF"/>
<path d="M513.458 376.681C513.458 377.13 513.026 377.493 512.493 377.493C511.96 377.493 511.528 377.13 511.528 376.681C511.528 376.233 511.96 375.869 512.493 375.869C513.026 375.869 513.458 376.233 513.458 376.681Z" fill="#13B3EF"/>
<path d="M658.231 376.681C658.231 377.13 657.799 377.493 657.266 377.493C656.732 377.493 656.3 377.13 656.3 376.681C656.3 376.233 656.732 375.869 657.266 375.869C657.799 375.869 658.231 376.233 658.231 376.681Z" fill="#13B3EF"/>
<path d="M803.003 376.681C803.003 377.13 802.571 377.493 802.038 377.493C801.505 377.493 801.073 377.13 801.073 376.681C801.073 376.233 801.505 375.869 802.038 375.869C802.571 375.869 803.003 376.233 803.003 376.681Z" fill="#13B3EF"/>
<path d="M947.775 376.681C947.775 377.13 947.343 377.493 946.81 377.493C946.277 377.493 945.845 377.13 945.845 376.681C945.845 376.233 946.277 375.869 946.81 375.869C947.343 375.869 947.775 376.233 947.775 376.681Z" fill="#13B3EF"/>
<path d="M1092.55 376.681C1092.55 377.13 1092.11 377.493 1091.58 377.493C1091.05 377.493 1090.62 377.13 1090.62 376.681C1090.62 376.233 1091.05 375.869 1091.58 375.869C1092.11 375.869 1092.55 376.233 1092.55 376.681Z" fill="#13B3EF"/>
<path d="M1237.32 376.681C1237.32 377.13 1236.89 377.493 1236.35 377.493C1235.82 377.493 1235.39 377.13 1235.39 376.681C1235.39 376.233 1235.82 375.869 1236.35 375.869C1236.89 375.869 1237.32 376.233 1237.32 376.681Z" fill="#13B3EF"/>
<path d="M59.8392 423.548C59.8392 423.996 59.4071 424.36 58.8741 424.36C58.3411 424.36 57.9089 423.996 57.9089 423.548C57.9089 423.099 58.3411 422.736 58.8741 422.736C59.4071 422.736 59.8392 423.099 59.8392 423.548Z" fill="#13B3EF"/>
<path d="M204.611 423.548C204.611 423.996 204.179 424.36 203.646 424.36C203.113 424.36 202.681 423.996 202.681 423.548C202.681 423.099 203.113 422.736 203.646 422.736C204.179 422.736 204.611 423.099 204.611 423.548Z" fill="#13B3EF"/>
<path d="M349.383 423.548C349.383 423.996 348.951 424.36 348.418 424.36C347.885 424.36 347.453 423.996 347.453 423.548C347.453 423.099 347.885 422.736 348.418 422.736C348.951 422.736 349.383 423.099 349.383 423.548Z" fill="#13B3EF"/>
<path d="M494.156 423.548C494.156 423.996 493.723 424.36 493.19 424.36C492.657 424.36 492.225 423.996 492.225 423.548C492.225 423.099 492.657 422.736 493.19 422.736C493.723 422.736 494.156 423.099 494.156 423.548Z" fill="#13B3EF"/>
<path d="M638.928 423.548C638.928 423.996 638.496 424.36 637.963 424.36C637.43 424.36 636.998 423.996 636.998 423.548C636.998 423.099 637.43 422.736 637.963 422.736C638.496 422.736 638.928 423.099 638.928 423.548Z" fill="#13B3EF"/>
<path d="M783.7 423.548C783.7 423.996 783.268 424.36 782.735 424.36C782.202 424.36 781.77 423.996 781.77 423.548C781.77 423.099 782.202 422.736 782.735 422.736C783.268 422.736 783.7 423.099 783.7 423.548Z" fill="#13B3EF"/>
<path d="M928.472 423.548C928.472 423.996 928.04 424.36 927.507 424.36C926.974 424.36 926.542 423.996 926.542 423.548C926.542 423.099 926.974 422.736 927.507 422.736C928.04 422.736 928.472 423.099 928.472 423.548Z" fill="#13B3EF"/>
<path d="M1073.24 423.548C1073.24 423.996 1072.81 424.36 1072.28 424.36C1071.75 424.36 1071.31 423.996 1071.31 423.548C1071.31 423.099 1071.75 422.736 1072.28 422.736C1072.81 422.736 1073.24 423.099 1073.24 423.548Z" fill="#13B3EF"/>
<path d="M1218.02 423.548C1218.02 423.996 1217.58 424.36 1217.05 424.36C1216.52 424.36 1216.09 423.996 1216.09 423.548C1216.09 423.099 1216.52 422.736 1217.05 422.736C1217.58 422.736 1218.02 423.099 1218.02 423.548Z" fill="#13B3EF"/>
<path d="M1362.79 423.548C1362.79 423.996 1362.36 424.36 1361.82 424.36C1361.29 424.36 1360.86 423.996 1360.86 423.548C1360.86 423.099 1361.29 422.736 1361.82 422.736C1362.36 422.736 1362.79 423.099 1362.79 423.548Z" fill="#13B3EF"/>
<path d="M117.748 470.414C117.748 470.863 117.316 471.226 116.783 471.226C116.25 471.226 115.818 470.863 115.818 470.414C115.818 469.966 116.25 469.602 116.783 469.602C117.316 469.602 117.748 469.966 117.748 470.414Z" fill="#13B3EF"/>
<path d="M262.52 470.414C262.52 470.863 262.088 471.226 261.555 471.226C261.022 471.226 260.59 470.863 260.59 470.414C260.59 469.966 261.022 469.602 261.555 469.602C262.088 469.602 262.52 469.966 262.52 470.414Z" fill="#13B3EF"/>
<path d="M407.292 470.414C407.292 470.863 406.86 471.226 406.327 471.226C405.794 471.226 405.362 470.863 405.362 470.414C405.362 469.966 405.794 469.602 406.327 469.602C406.86 469.602 407.292 469.966 407.292 470.414Z" fill="#13B3EF"/>
<path d="M552.065 470.414C552.065 470.863 551.633 471.226 551.099 471.226C550.566 471.226 550.134 470.863 550.134 470.414C550.134 469.966 550.566 469.602 551.099 469.602C551.633 469.602 552.065 469.966 552.065 470.414Z" fill="#13B3EF"/>
<path d="M696.836 470.414C696.836 470.863 696.404 471.226 695.871 471.226C695.338 471.226 694.906 470.863 694.906 470.414C694.906 469.966 695.338 469.602 695.871 469.602C696.404 469.602 696.836 469.966 696.836 470.414Z" fill="#13B3EF"/>
<path d="M841.609 470.414C841.609 470.863 841.176 471.226 840.643 471.226C840.11 471.226 839.678 470.863 839.678 470.414C839.678 469.966 840.11 469.602 840.643 469.602C841.176 469.602 841.609 469.966 841.609 470.414Z" fill="#13B3EF"/>
<path d="M986.381 470.414C986.381 470.863 985.949 471.226 985.416 471.226C984.883 471.226 984.451 470.863 984.451 470.414C984.451 469.966 984.883 469.602 985.416 469.602C985.949 469.602 986.381 469.966 986.381 470.414Z" fill="#13B3EF"/>
<path d="M1131.15 470.414C1131.15 470.863 1130.72 471.226 1130.19 471.226C1129.65 471.226 1129.22 470.863 1129.22 470.414C1129.22 469.966 1129.65 469.602 1130.19 469.602C1130.72 469.602 1131.15 469.966 1131.15 470.414Z" fill="#13B3EF"/>
<path d="M1275.93 470.414C1275.93 470.863 1275.49 471.226 1274.96 471.226C1274.43 471.226 1273.99 470.863 1273.99 470.414C1273.99 469.966 1274.43 469.602 1274.96 469.602C1275.49 469.602 1275.93 469.966 1275.93 470.414Z" fill="#13B3EF"/>
<path d="M1420.7 470.414C1420.7 470.863 1420.27 471.226 1419.73 471.226C1419.2 471.226 1418.77 470.863 1418.77 470.414C1418.77 469.966 1419.2 469.602 1419.73 469.602C1420.27 469.602 1420.7 469.966 1420.7 470.414Z" fill="#13B3EF"/>
<path d="M40.5363 517.281C40.5363 517.729 40.1042 518.093 39.5711 518.093C39.0381 518.093 38.606 517.729 38.606 517.281C38.606 516.832 39.0381 516.469 39.5711 516.469C40.1042 516.469 40.5363 516.832 40.5363 517.281Z" fill="#13B3EF"/>
<path d="M185.308 517.281C185.308 517.729 184.876 518.093 184.343 518.093C183.81 518.093 183.378 517.729 183.378 517.281C183.378 516.832 183.81 516.469 184.343 516.469C184.876 516.469 185.308 516.832 185.308 517.281Z" fill="#13B3EF"/>
<path d="M330.08 517.281C330.08 517.729 329.648 518.093 329.115 518.093C328.582 518.093 328.15 517.729 328.15 517.281C328.15 516.832 328.582 516.469 329.115 516.469C329.648 516.469 330.08 516.832 330.08 517.281Z" fill="#13B3EF"/>
<path d="M474.853 517.281C474.853 517.729 474.42 518.093 473.887 518.093C473.354 518.093 472.922 517.729 472.922 517.281C472.922 516.832 473.354 516.469 473.887 516.469C474.42 516.469 474.853 516.832 474.853 517.281Z" fill="#13B3EF"/>
<path d="M619.625 517.281C619.625 517.729 619.193 518.093 618.66 518.093C618.127 518.093 617.694 517.729 617.694 517.281C617.694 516.832 618.127 516.469 618.66 516.469C619.193 516.469 619.625 516.832 619.625 517.281Z" fill="#13B3EF"/>
<path d="M764.397 517.281C764.397 517.729 763.965 518.093 763.432 518.093C762.899 518.093 762.467 517.729 762.467 517.281C762.467 516.832 762.899 516.469 763.432 516.469C763.965 516.469 764.397 516.832 764.397 517.281Z" fill="#13B3EF"/>
<path d="M909.169 517.281C909.169 517.729 908.737 518.093 908.204 518.093C907.671 518.093 907.239 517.729 907.239 517.281C907.239 516.832 907.671 516.469 908.204 516.469C908.737 516.469 909.169 516.832 909.169 517.281Z" fill="#13B3EF"/>
<path d="M1053.94 517.281C1053.94 517.729 1053.51 518.093 1052.98 518.093C1052.44 518.093 1052.01 517.729 1052.01 517.281C1052.01 516.832 1052.44 516.469 1052.98 516.469C1053.51 516.469 1053.94 516.832 1053.94 517.281Z" fill="#13B3EF"/>
<path d="M1198.71 517.281C1198.71 517.729 1198.28 518.093 1197.75 518.093C1197.21 518.093 1196.78 517.729 1196.78 517.281C1196.78 516.832 1197.21 516.469 1197.75 516.469C1198.28 516.469 1198.71 516.832 1198.71 517.281Z" fill="#13B3EF"/>
<path d="M1343.49 517.281C1343.49 517.729 1343.05 518.093 1342.52 518.093C1341.99 518.093 1341.56 517.729 1341.56 517.281C1341.56 516.832 1341.99 516.469 1342.52 516.469C1343.05 516.469 1343.49 516.832 1343.49 517.281Z" fill="#13B3EF"/>
<path d="M69.4906 564.147C69.4906 564.596 69.0585 564.959 68.5255 564.959C67.9924 564.959 67.5603 564.596 67.5603 564.147C67.5603 563.699 67.9924 563.335 68.5255 563.335C69.0585 563.335 69.4906 563.699 69.4906 564.147Z" fill="#13B3EF"/>
<path d="M214.263 564.147C214.263 564.596 213.831 564.959 213.297 564.959C212.764 564.959 212.332 564.596 212.332 564.147C212.332 563.699 212.764 563.335 213.297 563.335C213.831 563.335 214.263 563.699 214.263 564.147Z" fill="#13B3EF"/>
<path d="M359.035 564.147C359.035 564.596 358.603 564.959 358.07 564.959C357.537 564.959 357.105 564.596 357.105 564.147C357.105 563.699 357.537 563.335 358.07 563.335C358.603 563.335 359.035 563.699 359.035 564.147Z" fill="#13B3EF"/>
<path d="M503.807 564.147C503.807 564.596 503.375 564.959 502.842 564.959C502.309 564.959 501.877 564.596 501.877 564.147C501.877 563.699 502.309 563.335 502.842 563.335C503.375 563.335 503.807 563.699 503.807 564.147Z" fill="#13B3EF"/>
<path d="M648.579 564.147C648.579 564.596 648.147 564.959 647.614 564.959C647.081 564.959 646.649 564.596 646.649 564.147C646.649 563.699 647.081 563.335 647.614 563.335C648.147 563.335 648.579 563.699 648.579 564.147Z" fill="#13B3EF"/>
<path d="M793.351 564.147C793.351 564.596 792.919 564.959 792.386 564.959C791.853 564.959 791.421 564.596 791.421 564.147C791.421 563.699 791.853 563.335 792.386 563.335C792.919 563.335 793.351 563.699 793.351 564.147Z" fill="#13B3EF"/>
<path d="M938.124 564.147C938.124 564.596 937.691 564.959 937.158 564.959C936.625 564.959 936.193 564.596 936.193 564.147C936.193 563.699 936.625 563.335 937.158 563.335C937.691 563.335 938.124 563.699 938.124 564.147Z" fill="#13B3EF"/>
<path d="M1082.9 564.147C1082.9 564.596 1082.46 564.959 1081.93 564.959C1081.4 564.959 1080.97 564.596 1080.97 564.147C1080.97 563.699 1081.4 563.335 1081.93 563.335C1082.46 563.335 1082.9 563.699 1082.9 564.147Z" fill="#13B3EF"/>
<path d="M1227.67 564.147C1227.67 564.596 1227.24 564.959 1226.7 564.959C1226.17 564.959 1225.74 564.596 1225.74 564.147C1225.74 563.699 1226.17 563.335 1226.7 563.335C1227.24 563.335 1227.67 563.699 1227.67 564.147Z" fill="#13B3EF"/>
<path d="M1372.44 564.147C1372.44 564.596 1372.01 564.959 1371.47 564.959C1370.94 564.959 1370.51 564.596 1370.51 564.147C1370.51 563.699 1370.94 563.335 1371.47 563.335C1372.01 563.335 1372.44 563.699 1372.44 564.147Z" fill="#13B3EF"/>
<path d="M137.051 615.7C137.051 616.149 136.619 616.512 136.086 616.512C135.553 616.512 135.121 616.149 135.121 615.7C135.121 615.252 135.553 614.888 136.086 614.888C136.619 614.888 137.051 615.252 137.051 615.7Z" fill="#13B3EF"/>
<path d="M281.823 615.7C281.823 616.149 281.391 616.512 280.858 616.512C280.325 616.512 279.893 616.149 279.893 615.7C279.893 615.252 280.325 614.888 280.858 614.888C281.391 614.888 281.823 615.252 281.823 615.7Z" fill="#13B3EF"/>
<path d="M426.595 615.7C426.595 616.149 426.163 616.512 425.63 616.512C425.097 616.512 424.665 616.149 424.665 615.7C424.665 615.252 425.097 614.888 425.63 614.888C426.163 614.888 426.595 615.252 426.595 615.7Z" fill="#13B3EF"/>
<path d="M571.367 615.7C571.367 616.149 570.935 616.512 570.402 616.512C569.869 616.512 569.437 616.149 569.437 615.7C569.437 615.252 569.869 614.888 570.402 614.888C570.935 614.888 571.367 615.252 571.367 615.7Z" fill="#13B3EF"/>
<path d="M716.14 615.7C716.14 616.149 715.708 616.512 715.174 616.512C714.641 616.512 714.209 616.149 714.209 615.7C714.209 615.252 714.641 614.888 715.174 614.888C715.708 614.888 716.14 615.252 716.14 615.7Z" fill="#13B3EF"/>
<path d="M860.912 615.7C860.912 616.149 860.479 616.512 859.947 616.512C859.414 616.512 858.982 616.149 858.982 615.7C858.982 615.252 859.414 614.888 859.947 614.888C860.479 614.888 860.912 615.252 860.912 615.7Z" fill="#13B3EF"/>
<path d="M1005.68 615.7C1005.68 616.149 1005.25 616.512 1004.72 616.512C1004.19 616.512 1003.75 616.149 1003.75 615.7C1003.75 615.252 1004.19 614.888 1004.72 614.888C1005.25 614.888 1005.68 615.252 1005.68 615.7Z" fill="#13B3EF"/>
<path d="M1150.46 615.7C1150.46 616.149 1150.02 616.512 1149.49 616.512C1148.96 616.512 1148.53 616.149 1148.53 615.7C1148.53 615.252 1148.96 614.888 1149.49 614.888C1150.02 614.888 1150.46 615.252 1150.46 615.7Z" fill="#13B3EF"/>
<path d="M1295.23 615.7C1295.23 616.149 1294.8 616.512 1294.26 616.512C1293.73 616.512 1293.3 616.149 1293.3 615.7C1293.3 615.252 1293.73 614.888 1294.26 614.888C1294.8 614.888 1295.23 615.252 1295.23 615.7Z" fill="#13B3EF"/>
<path d="M1440 615.7C1440 616.149 1439.57 616.512 1439.03 616.512C1438.5 616.512 1438.07 616.149 1438.07 615.7C1438.07 615.252 1438.5 614.888 1439.03 614.888C1439.57 614.888 1440 615.252 1440 615.7Z" fill="#13B3EF"/>
<path d="M79.1422 667.254C79.1422 667.702 78.7101 668.066 78.1771 668.066C77.644 668.066 77.2119 667.702 77.2119 667.254C77.2119 666.805 77.644 666.442 78.1771 666.442C78.7101 666.442 79.1422 666.805 79.1422 667.254Z" fill="#13B3EF"/>
<path d="M223.914 667.254C223.914 667.702 223.482 668.066 222.949 668.066C222.416 668.066 221.984 667.702 221.984 667.254C221.984 666.805 222.416 666.442 222.949 666.442C223.482 666.442 223.914 666.805 223.914 667.254Z" fill="#13B3EF"/>
<path d="M368.687 667.254C368.687 667.702 368.254 668.066 367.721 668.066C367.188 668.066 366.756 667.702 366.756 667.254C366.756 666.805 367.188 666.442 367.721 666.442C368.254 666.442 368.687 666.805 368.687 667.254Z" fill="#13B3EF"/>
<path d="M513.458 667.254C513.458 667.702 513.026 668.066 512.493 668.066C511.96 668.066 511.528 667.702 511.528 667.254C511.528 666.805 511.96 666.442 512.493 666.442C513.026 666.442 513.458 666.805 513.458 667.254Z" fill="#13B3EF"/>
<path d="M658.231 667.254C658.231 667.702 657.799 668.066 657.266 668.066C656.732 668.066 656.3 667.702 656.3 667.254C656.3 666.805 656.732 666.442 657.266 666.442C657.799 666.442 658.231 666.805 658.231 667.254Z" fill="#13B3EF"/>
<path d="M803.003 667.254C803.003 667.702 802.571 668.066 802.038 668.066C801.505 668.066 801.073 667.702 801.073 667.254C801.073 666.805 801.505 666.442 802.038 666.442C802.571 666.442 803.003 666.805 803.003 667.254Z" fill="#13B3EF"/>
<path d="M947.775 667.254C947.775 667.702 947.343 668.066 946.81 668.066C946.277 668.066 945.845 667.702 945.845 667.254C945.845 666.805 946.277 666.442 946.81 666.442C947.343 666.442 947.775 666.805 947.775 667.254Z" fill="#13B3EF"/>
<path d="M1092.55 667.254C1092.55 667.702 1092.11 668.066 1091.58 668.066C1091.05 668.066 1090.62 667.702 1090.62 667.254C1090.62 666.805 1091.05 666.442 1091.58 666.442C1092.11 666.442 1092.55 666.805 1092.55 667.254Z" fill="#13B3EF"/>
<path d="M1237.32 667.254C1237.32 667.702 1236.89 668.066 1236.35 668.066C1235.82 668.066 1235.39 667.702 1235.39 667.254C1235.39 666.805 1235.82 666.442 1236.35 666.442C1236.89 666.442 1237.32 666.805 1237.32 667.254Z" fill="#13B3EF"/>
<path d="M1382.09 667.254C1382.09 667.702 1381.66 668.066 1381.13 668.066C1380.59 668.066 1380.16 667.702 1380.16 667.254C1380.16 666.805 1380.59 666.442 1381.13 666.442C1381.66 666.442 1382.09 666.805 1382.09 667.254Z" fill="#13B3EF"/>
<path d="M156.354 717.87C156.354 718.318 155.922 718.682 155.389 718.682C154.856 718.682 154.424 718.318 154.424 717.87C154.424 717.421 154.856 717.058 155.389 717.058C155.922 717.058 156.354 717.421 156.354 717.87Z" fill="#13B3EF"/>
<path d="M301.126 717.87C301.126 718.318 300.694 718.682 300.161 718.682C299.628 718.682 299.196 718.318 299.196 717.87C299.196 717.421 299.628 717.058 300.161 717.058C300.694 717.058 301.126 717.421 301.126 717.87Z" fill="#13B3EF"/>
<path d="M445.898 717.87C445.898 718.318 445.466 718.682 444.933 718.682C444.4 718.682 443.968 718.318 443.968 717.87C443.968 717.421 444.4 717.058 444.933 717.058C445.466 717.058 445.898 717.421 445.898 717.87Z" fill="#13B3EF"/>
<path d="M590.67 717.87C590.67 718.318 590.238 718.682 589.705 718.682C589.172 718.682 588.74 718.318 588.74 717.87C588.74 717.421 589.172 717.058 589.705 717.058C590.238 717.058 590.67 717.421 590.67 717.87Z" fill="#13B3EF"/>
<path d="M735.442 717.87C735.442 718.318 735.01 718.682 734.477 718.682C733.944 718.682 733.512 718.318 733.512 717.87C733.512 717.421 733.944 717.058 734.477 717.058C735.01 717.058 735.442 717.421 735.442 717.87Z" fill="#13B3EF"/>
<path d="M880.215 717.87C880.215 718.318 879.782 718.682 879.249 718.682C878.716 718.682 878.284 718.318 878.284 717.87C878.284 717.421 878.716 717.058 879.249 717.058C879.782 717.058 880.215 717.421 880.215 717.87Z" fill="#13B3EF"/>
<path d="M1024.99 717.87C1024.99 718.318 1024.55 718.682 1024.02 718.682C1023.49 718.682 1023.06 718.318 1023.06 717.87C1023.06 717.421 1023.49 717.058 1024.02 717.058C1024.55 717.058 1024.99 717.421 1024.99 717.87Z" fill="#13B3EF"/>
<path d="M1169.76 717.87C1169.76 718.318 1169.33 718.682 1168.79 718.682C1168.26 718.682 1167.83 718.318 1167.83 717.87C1167.83 717.421 1168.26 717.058 1168.79 717.058C1169.33 717.058 1169.76 717.421 1169.76 717.87Z" fill="#13B3EF"/>
<path d="M1314.53 717.87C1314.53 718.318 1314.1 718.682 1313.57 718.682C1313.03 718.682 1312.6 718.318 1312.6 717.87C1312.6 717.421 1313.03 717.058 1313.57 717.058C1314.1 717.058 1314.53 717.421 1314.53 717.87Z" fill="#13B3EF"/>
<path d="M98.4452 769.422C98.4452 769.871 98.0131 770.235 97.48 770.235C96.947 770.235 96.5149 769.871 96.5149 769.422C96.5149 768.974 96.947 768.61 97.48 768.61C98.0131 768.61 98.4452 768.974 98.4452 769.422Z" fill="#13B3EF"/>
<path d="M243.217 769.422C243.217 769.871 242.785 770.235 242.252 770.235C241.719 770.235 241.287 769.871 241.287 769.422C241.287 768.974 241.719 768.61 242.252 768.61C242.785 768.61 243.217 768.974 243.217 769.422Z" fill="#13B3EF"/>
<path d="M387.989 769.422C387.989 769.871 387.557 770.235 387.024 770.235C386.491 770.235 386.059 769.871 386.059 769.422C386.059 768.974 386.491 768.61 387.024 768.61C387.557 768.61 387.989 768.974 387.989 769.422Z" fill="#13B3EF"/>
<path d="M532.761 769.422C532.761 769.871 532.329 770.235 531.796 770.235C531.263 770.235 530.831 769.871 530.831 769.422C530.831 768.974 531.263 768.61 531.796 768.61C532.329 768.61 532.761 768.974 532.761 769.422Z" fill="#13B3EF"/>
<path d="M677.534 769.422C677.534 769.871 677.102 770.235 676.569 770.235C676.036 770.235 675.604 769.871 675.604 769.422C675.604 768.974 676.036 768.61 676.569 768.61C677.102 768.61 677.534 768.974 677.534 769.422Z" fill="#13B3EF"/>
<path d="M822.306 769.422C822.306 769.871 821.874 770.235 821.341 770.235C820.808 770.235 820.376 769.871 820.376 769.422C820.376 768.974 820.808 768.61 821.341 768.61C821.874 768.61 822.306 768.974 822.306 769.422Z" fill="#13B3EF"/>
<path d="M967.078 769.422C967.078 769.871 966.646 770.235 966.113 770.235C965.58 770.235 965.148 769.871 965.148 769.422C965.148 768.974 965.58 768.61 966.113 768.61C966.646 768.61 967.078 768.974 967.078 769.422Z" fill="#13B3EF"/>
<path d="M1111.85 769.422C1111.85 769.871 1111.42 770.235 1110.88 770.235C1110.35 770.235 1109.92 769.871 1109.92 769.422C1109.92 768.974 1110.35 768.61 1110.88 768.61C1111.42 768.61 1111.85 768.974 1111.85 769.422Z" fill="#13B3EF"/>
<path d="M1256.62 769.422C1256.62 769.871 1256.19 770.235 1255.66 770.235C1255.12 770.235 1254.69 769.871 1254.69 769.422C1254.69 768.974 1255.12 768.61 1255.66 768.61C1256.19 768.61 1256.62 768.974 1256.62 769.422Z" fill="#13B3EF"/>
<path d="M1401.39 769.422C1401.39 769.871 1400.96 770.235 1400.43 770.235C1399.9 770.235 1399.46 769.871 1399.46 769.422C1399.46 768.974 1399.9 768.61 1400.43 768.61C1400.96 768.61 1401.39 768.974 1401.39 769.422Z" fill="#13B3EF"/>
<path d="M40.5363 820.976C40.5363 821.424 40.1042 821.788 39.5711 821.788C39.0381 821.788 38.606 821.424 38.606 820.976C38.606 820.527 39.0381 820.164 39.5711 820.164C40.1042 820.164 40.5363 820.527 40.5363 820.976Z" fill="#13B3EF"/>
<path d="M185.308 820.976C185.308 821.424 184.876 821.788 184.343 821.788C183.81 821.788 183.378 821.424 183.378 820.976C183.378 820.527 183.81 820.164 184.343 820.164C184.876 820.164 185.308 820.527 185.308 820.976Z" fill="#13B3EF"/>
<path d="M330.08 820.976C330.08 821.424 329.648 821.788 329.115 821.788C328.582 821.788 328.15 821.424 328.15 820.976C328.15 820.527 328.582 820.164 329.115 820.164C329.648 820.164 330.08 820.527 330.08 820.976Z" fill="#13B3EF"/>
<path d="M474.853 820.976C474.853 821.424 474.42 821.788 473.887 821.788C473.354 821.788 472.922 821.424 472.922 820.976C472.922 820.527 473.354 820.164 473.887 820.164C474.42 820.164 474.853 820.527 474.853 820.976Z" fill="#13B3EF"/>
<path d="M619.625 820.976C619.625 821.424 619.193 821.788 618.66 821.788C618.127 821.788 617.694 821.424 617.694 820.976C617.694 820.527 618.127 820.164 618.66 820.164C619.193 820.164 619.625 820.527 619.625 820.976Z" fill="#13B3EF"/>
<path d="M764.397 820.976C764.397 821.424 763.965 821.788 763.432 821.788C762.899 821.788 762.467 821.424 762.467 820.976C762.467 820.527 762.899 820.164 763.432 820.164C763.965 820.164 764.397 820.527 764.397 820.976Z" fill="#13B3EF"/>
<path d="M909.169 820.976C909.169 821.424 908.737 821.788 908.204 821.788C907.671 821.788 907.239 821.424 907.239 820.976C907.239 820.527 907.671 820.164 908.204 820.164C908.737 820.164 909.169 820.527 909.169 820.976Z" fill="#13B3EF"/>
<path d="M1053.94 820.976C1053.94 821.424 1053.51 821.788 1052.98 821.788C1052.44 821.788 1052.01 821.424 1052.01 820.976C1052.01 820.527 1052.44 820.164 1052.98 820.164C1053.51 820.164 1053.94 820.527 1053.94 820.976Z" fill="#13B3EF"/>
<path d="M1198.71 820.976C1198.71 821.424 1198.28 821.788 1197.75 821.788C1197.21 821.788 1196.78 821.424 1196.78 820.976C1196.78 820.527 1197.21 820.164 1197.75 820.164C1198.28 820.164 1198.71 820.527 1198.71 820.976Z" fill="#13B3EF"/>
<path d="M1343.49 820.976C1343.49 821.424 1343.05 821.788 1342.52 821.788C1341.99 821.788 1341.56 821.424 1341.56 820.976C1341.56 820.527 1341.99 820.164 1342.52 820.164C1343.05 820.164 1343.49 820.527 1343.49 820.976Z" fill="#13B3EF"/>
<path d="M98.4452 872.529C98.4452 872.977 98.0131 873.341 97.48 873.341C96.947 873.341 96.5149 872.977 96.5149 872.529C96.5149 872.08 96.947 871.717 97.48 871.717C98.0131 871.717 98.4452 872.08 98.4452 872.529Z" fill="#13B3EF"/>
<path d="M243.217 872.529C243.217 872.977 242.785 873.341 242.252 873.341C241.719 873.341 241.287 872.977 241.287 872.529C241.287 872.08 241.719 871.717 242.252 871.717C242.785 871.717 243.217 872.08 243.217 872.529Z" fill="#13B3EF"/>
<path d="M387.989 872.529C387.989 872.977 387.557 873.341 387.024 873.341C386.491 873.341 386.059 872.977 386.059 872.529C386.059 872.08 386.491 871.717 387.024 871.717C387.557 871.717 387.989 872.08 387.989 872.529Z" fill="#13B3EF"/>
<path d="M532.761 872.529C532.761 872.977 532.329 873.341 531.796 873.341C531.263 873.341 530.831 872.977 530.831 872.529C530.831 872.08 531.263 871.717 531.796 871.717C532.329 871.717 532.761 872.08 532.761 872.529Z" fill="#13B3EF"/>
<path d="M677.534 872.529C677.534 872.977 677.102 873.341 676.569 873.341C676.036 873.341 675.604 872.977 675.604 872.529C675.604 872.08 676.036 871.717 676.569 871.717C677.102 871.717 677.534 872.08 677.534 872.529Z" fill="#13B3EF"/>
<path d="M822.306 872.529C822.306 872.977 821.874 873.341 821.341 873.341C820.808 873.341 820.376 872.977 820.376 872.529C820.376 872.08 820.808 871.717 821.341 871.717C821.874 871.717 822.306 872.08 822.306 872.529Z" fill="#13B3EF"/>
<path d="M967.078 872.529C967.078 872.977 966.646 873.341 966.113 873.341C965.58 873.341 965.148 872.977 965.148 872.529C965.148 872.08 965.58 871.717 966.113 871.717C966.646 871.717 967.078 872.08 967.078 872.529Z" fill="#13B3EF"/>
<path d="M1111.85 872.529C1111.85 872.977 1111.42 873.341 1110.88 873.341C1110.35 873.341 1109.92 872.977 1109.92 872.529C1109.92 872.08 1110.35 871.717 1110.88 871.717C1111.42 871.717 1111.85 872.08 1111.85 872.529Z" fill="#13B3EF"/>
<path d="M1256.62 872.529C1256.62 872.977 1256.19 873.341 1255.66 873.341C1255.12 873.341 1254.69 872.977 1254.69 872.529C1254.69 872.08 1255.12 871.717 1255.66 871.717C1256.19 871.717 1256.62 872.08 1256.62 872.529Z" fill="#13B3EF"/>
<path d="M59.8392 919.395C59.8392 919.844 59.4071 920.208 58.8741 920.208C58.3411 920.208 57.9089 919.844 57.9089 919.395C57.9089 918.947 58.3411 918.583 58.8741 918.583C59.4071 918.583 59.8392 918.947 59.8392 919.395Z" fill="#13B3EF"/>
<path d="M204.611 919.395C204.611 919.844 204.179 920.208 203.646 920.208C203.113 920.208 202.681 919.844 202.681 919.395C202.681 918.947 203.113 918.583 203.646 918.583C204.179 918.583 204.611 918.947 204.611 919.395Z" fill="#13B3EF"/>
<path d="M349.383 919.395C349.383 919.844 348.951 920.208 348.418 920.208C347.885 920.208 347.453 919.844 347.453 919.395C347.453 918.947 347.885 918.583 348.418 918.583C348.951 918.583 349.383 918.947 349.383 919.395Z" fill="#13B3EF"/>
<path d="M494.156 919.395C494.156 919.844 493.723 920.208 493.19 920.208C492.657 920.208 492.225 919.844 492.225 919.395C492.225 918.947 492.657 918.583 493.19 918.583C493.723 918.583 494.156 918.947 494.156 919.395Z" fill="#13B3EF"/>
<path d="M638.928 919.395C638.928 919.844 638.496 920.208 637.963 920.208C637.43 920.208 636.998 919.844 636.998 919.395C636.998 918.947 637.43 918.583 637.963 918.583C638.496 918.583 638.928 918.947 638.928 919.395Z" fill="#13B3EF"/>
<path d="M783.7 919.395C783.7 919.844 783.268 920.208 782.735 920.208C782.202 920.208 781.77 919.844 781.77 919.395C781.77 918.947 782.202 918.583 782.735 918.583C783.268 918.583 783.7 918.947 783.7 919.395Z" fill="#13B3EF"/>
<path d="M928.472 919.395C928.472 919.844 928.04 920.208 927.507 920.208C926.974 920.208 926.542 919.844 926.542 919.395C926.542 918.947 926.974 918.583 927.507 918.583C928.04 918.583 928.472 918.947 928.472 919.395Z" fill="#13B3EF"/>
<path d="M1073.24 919.395C1073.24 919.844 1072.81 920.208 1072.28 920.208C1071.75 920.208 1071.31 919.844 1071.31 919.395C1071.31 918.947 1071.75 918.583 1072.28 918.583C1072.81 918.583 1073.24 918.947 1073.24 919.395Z" fill="#13B3EF"/>
<path d="M1218.02 919.395C1218.02 919.844 1217.58 920.208 1217.05 920.208C1216.52 920.208 1216.09 919.844 1216.09 919.395C1216.09 918.947 1216.52 918.583 1217.05 918.583C1217.58 918.583 1218.02 918.947 1218.02 919.395Z" fill="#13B3EF"/>
<path d="M1218.02 919.395C1218.02 919.844 1217.58 920.208 1217.05 920.208C1216.52 920.208 1216.09 919.844 1216.09 919.395C1216.09 918.947 1216.52 918.583 1217.05 918.583C1217.58 918.583 1218.02 918.947 1218.02 919.395Z" fill="#13B3EF"/>
<path d="M137.051 966.262C137.051 966.71 136.619 967.074 136.086 967.074C135.553 967.074 135.121 966.71 135.121 966.262C135.121 965.813 135.553 965.45 136.086 965.45C136.619 965.45 137.051 965.813 137.051 966.262Z" fill="#13B3EF"/>
<path d="M281.823 966.262C281.823 966.71 281.391 967.074 280.858 967.074C280.325 967.074 279.893 966.71 279.893 966.262C279.893 965.813 280.325 965.45 280.858 965.45C281.391 965.45 281.823 965.813 281.823 966.262Z" fill="#13B3EF"/>
<path d="M426.595 966.262C426.595 966.71 426.163 967.074 425.63 967.074C425.097 967.074 424.665 966.71 424.665 966.262C424.665 965.813 425.097 965.45 425.63 965.45C426.163 965.45 426.595 965.813 426.595 966.262Z" fill="#13B3EF"/>
<path d="M571.367 966.262C571.367 966.71 570.935 967.074 570.402 967.074C569.869 967.074 569.437 966.71 569.437 966.262C569.437 965.813 569.869 965.45 570.402 965.45C570.935 965.45 571.367 965.813 571.367 966.262Z" fill="#13B3EF"/>
<path d="M716.14 966.262C716.14 966.71 715.708 967.074 715.174 967.074C714.641 967.074 714.209 966.71 714.209 966.262C714.209 965.813 714.641 965.45 715.174 965.45C715.708 965.45 716.14 965.813 716.14 966.262Z" fill="#13B3EF"/>
<path d="M860.912 966.262C860.912 966.71 860.479 967.074 859.947 967.074C859.414 967.074 858.982 966.71 858.982 966.262C858.982 965.813 859.414 965.45 859.947 965.45C860.479 965.45 860.912 965.813 860.912 966.262Z" fill="#13B3EF"/>
<path d="M1005.68 966.262C1005.68 966.71 1005.25 967.074 1004.72 967.074C1004.19 967.074 1003.75 966.71 1003.75 966.262C1003.75 965.813 1004.19 965.45 1004.72 965.45C1005.25 965.45 1005.68 965.813 1005.68 966.262Z" fill="#13B3EF"/>
<path d="M1150.46 966.262C1150.46 966.71 1150.02 967.074 1149.49 967.074C1148.96 967.074 1148.53 966.71 1148.53 966.262C1148.53 965.813 1148.96 965.45 1149.49 965.45C1150.02 965.45 1150.46 965.813 1150.46 966.262Z" fill="#13B3EF"/>
<path d="M1295.23 966.262C1295.23 966.71 1294.8 967.074 1294.26 967.074C1293.73 967.074 1293.3 966.71 1293.3 966.262C1293.3 965.813 1293.73 965.45 1294.26 965.45C1294.8 965.45 1295.23 965.813 1295.23 966.262Z" fill="#13B3EF"/>
<path d="M1401.39 872.529C1401.39 872.977 1400.96 873.341 1400.43 873.341C1399.9 873.341 1399.46 872.977 1399.46 872.529C1399.46 872.08 1399.9 871.717 1400.43 871.717C1400.96 871.717 1401.39 872.08 1401.39 872.529Z" fill="#13B3EF"/>
</svg>
