<svg width="546" height="387" viewBox="0 0 546 387" fill="none" xmlns="http://www.w3.org/2000/svg">
<path d="M19.0226 0.324979C19.0226 0.50446 18.8588 0.649958 18.6568 0.649958C18.4547 0.649958 18.2909 0.50446 18.2909 0.324979C18.2909 0.145498 18.4547 0 18.6568 0C18.8588 0 19.0226 0.145498 19.0226 0.324979Z" fill="#13B3EF"/>
<path d="M73.898 0.324979C73.898 0.50446 73.7342 0.649958 73.5322 0.649958C73.3301 0.649958 73.1663 0.50446 73.1663 0.324979C73.1663 0.145498 73.3301 0 73.5322 0C73.7342 0 73.898 0.145498 73.898 0.324979Z" fill="#13B3EF"/>
<path d="M128.772 0.324979C128.772 0.50446 128.608 0.649958 128.406 0.649958C128.204 0.649958 128.04 0.50446 128.04 0.324979C128.04 0.145498 128.204 0 128.406 0C128.608 0 128.772 0.145498 128.772 0.324979Z" fill="#13B3EF"/>
<path d="M183.646 0.324979C183.646 0.50446 183.482 0.649958 183.28 0.649958C183.078 0.649958 182.915 0.50446 182.915 0.324979C182.915 0.145498 183.078 0 183.28 0C183.482 0 183.646 0.145498 183.646 0.324979Z" fill="#13B3EF"/>
<path d="M238.521 0.324979C238.521 0.50446 238.357 0.649958 238.155 0.649958C237.953 0.649958 237.789 0.50446 237.789 0.324979C237.789 0.145498 237.953 0 238.155 0C238.357 0 238.521 0.145498 238.521 0.324979Z" fill="#13B3EF"/>
<path d="M293.395 0.324979C293.395 0.50446 293.231 0.649958 293.029 0.649958C292.827 0.649958 292.664 0.50446 292.664 0.324979C292.664 0.145498 292.827 0 293.029 0C293.231 0 293.395 0.145498 293.395 0.324979Z" fill="#13B3EF"/>
<path d="M348.27 0.324979C348.27 0.50446 348.106 0.649958 347.904 0.649958C347.702 0.649958 347.538 0.50446 347.538 0.324979C347.538 0.145498 347.702 0 347.904 0C348.106 0 348.27 0.145498 348.27 0.324979Z" fill="#13B3EF"/>
<path d="M403.144 0.324979C403.144 0.50446 402.98 0.649958 402.778 0.649958C402.576 0.649958 402.413 0.50446 402.413 0.324979C402.413 0.145498 402.576 0 402.778 0C402.98 0 403.144 0.145498 403.144 0.324979Z" fill="#13B3EF"/>
<path d="M458.019 0.324979C458.019 0.50446 457.855 0.649958 457.653 0.649958C457.451 0.649958 457.287 0.50446 457.287 0.324979C457.287 0.145498 457.451 0 457.653 0C457.855 0 458.019 0.145498 458.019 0.324979Z" fill="#13B3EF"/>
<path d="M512.893 0.324979C512.893 0.50446 512.73 0.649958 512.528 0.649958C512.326 0.649958 512.162 0.50446 512.162 0.324979C512.162 0.145498 512.326 0 512.528 0C512.73 0 512.893 0.145498 512.893 0.324979Z" fill="#13B3EF"/>
<path d="M37.3144 19.0798C37.3144 19.2593 37.1506 19.4048 36.9486 19.4048C36.7465 19.4048 36.5827 19.2593 36.5827 19.0798C36.5827 18.9004 36.7465 18.7549 36.9486 18.7549C37.1506 18.7549 37.3144 18.9004 37.3144 19.0798Z" fill="#13B3EF"/>
<path d="M92.1898 19.0798C92.1898 19.2593 92.026 19.4048 91.824 19.4048C91.6219 19.4048 91.4581 19.2593 91.4581 19.0798C91.4581 18.9004 91.6219 18.7549 91.824 18.7549C92.026 18.7549 92.1898 18.9004 92.1898 19.0798Z" fill="#13B3EF"/>
<path d="M147.063 19.0798C147.063 19.2593 146.9 19.4048 146.698 19.4048C146.496 19.4048 146.332 19.2593 146.332 19.0798C146.332 18.9004 146.496 18.7549 146.698 18.7549C146.9 18.7549 147.063 18.9004 147.063 19.0798Z" fill="#13B3EF"/>
<path d="M201.938 19.0798C201.938 19.2593 201.774 19.4048 201.572 19.4048C201.37 19.4048 201.206 19.2593 201.206 19.0798C201.206 18.9004 201.37 18.7549 201.572 18.7549C201.774 18.7549 201.938 18.9004 201.938 19.0798Z" fill="#13B3EF"/>
<path d="M256.812 19.0798C256.812 19.2593 256.649 19.4048 256.447 19.4048C256.245 19.4048 256.081 19.2593 256.081 19.0798C256.081 18.9004 256.245 18.7549 256.447 18.7549C256.649 18.7549 256.812 18.9004 256.812 19.0798Z" fill="#13B3EF"/>
<path d="M311.687 19.0798C311.687 19.2593 311.523 19.4048 311.321 19.4048C311.119 19.4048 310.955 19.2593 310.955 19.0798C310.955 18.9004 311.119 18.7549 311.321 18.7549C311.523 18.7549 311.687 18.9004 311.687 19.0798Z" fill="#13B3EF"/>
<path d="M366.562 19.0798C366.562 19.2593 366.398 19.4048 366.196 19.4048C365.994 19.4048 365.83 19.2593 365.83 19.0798C365.83 18.9004 365.994 18.7549 366.196 18.7549C366.398 18.7549 366.562 18.9004 366.562 19.0798Z" fill="#13B3EF"/>
<path d="M421.435 19.0798C421.435 19.2593 421.272 19.4048 421.069 19.4048C420.867 19.4048 420.704 19.2593 420.704 19.0798C420.704 18.9004 420.867 18.7549 421.069 18.7549C421.272 18.7549 421.435 18.9004 421.435 19.0798Z" fill="#13B3EF"/>
<path d="M476.31 19.0798C476.31 19.2593 476.146 19.4048 475.944 19.4048C475.742 19.4048 475.578 19.2593 475.578 19.0798C475.578 18.9004 475.742 18.7549 475.944 18.7549C476.146 18.7549 476.31 18.9004 476.31 19.0798Z" fill="#13B3EF"/>
<path d="M531.184 19.0798C531.184 19.2593 531.021 19.4048 530.818 19.4048C530.616 19.4048 530.453 19.2593 530.453 19.0798C530.453 18.9004 530.616 18.7549 530.818 18.7549C531.021 18.7549 531.184 18.9004 531.184 19.0798Z" fill="#13B3EF"/>
<path d="M4.38985 37.8347C4.38985 38.0142 4.22606 38.1597 4.02402 38.1597C3.82198 38.1597 3.65819 38.0142 3.65819 37.8347C3.65819 37.6552 3.82198 37.5097 4.02402 37.5097C4.22606 37.5097 4.38985 37.6552 4.38985 37.8347Z" fill="#13B3EF"/>
<path d="M59.2644 37.8347C59.2644 38.0142 59.1006 38.1597 58.8986 38.1597C58.6965 38.1597 58.5327 38.0142 58.5327 37.8347C58.5327 37.6552 58.6965 37.5097 58.8986 37.5097C59.1006 37.5097 59.2644 37.6552 59.2644 37.8347Z" fill="#13B3EF"/>
<path d="M114.139 37.8347C114.139 38.0142 113.975 38.1597 113.773 38.1597C113.571 38.1597 113.407 38.0142 113.407 37.8347C113.407 37.6552 113.571 37.5097 113.773 37.5097C113.975 37.5097 114.139 37.6552 114.139 37.8347Z" fill="#13B3EF"/>
<path d="M169.013 37.8347C169.013 38.0142 168.849 38.1597 168.647 38.1597C168.445 38.1597 168.281 38.0142 168.281 37.8347C168.281 37.6552 168.445 37.5097 168.647 37.5097C168.849 37.5097 169.013 37.6552 169.013 37.8347Z" fill="#13B3EF"/>
<path d="M223.888 37.8347C223.888 38.0142 223.724 38.1597 223.522 38.1597C223.32 38.1597 223.156 38.0142 223.156 37.8347C223.156 37.6552 223.32 37.5097 223.522 37.5097C223.724 37.5097 223.888 37.6552 223.888 37.8347Z" fill="#13B3EF"/>
<path d="M278.762 37.8347C278.762 38.0142 278.599 38.1597 278.397 38.1597C278.195 38.1597 278.031 38.0142 278.031 37.8347C278.031 37.6552 278.195 37.5097 278.397 37.5097C278.599 37.5097 278.762 37.6552 278.762 37.8347Z" fill="#13B3EF"/>
<path d="M333.637 37.8347C333.637 38.0142 333.473 38.1597 333.271 38.1597C333.069 38.1597 332.905 38.0142 332.905 37.8347C332.905 37.6552 333.069 37.5097 333.271 37.5097C333.473 37.5097 333.637 37.6552 333.637 37.8347Z" fill="#13B3EF"/>
<path d="M388.511 37.8347C388.511 38.0142 388.347 38.1597 388.145 38.1597C387.943 38.1597 387.779 38.0142 387.779 37.8347C387.779 37.6552 387.943 37.5097 388.145 37.5097C388.347 37.5097 388.511 37.6552 388.511 37.8347Z" fill="#13B3EF"/>
<path d="M443.385 37.8347C443.385 38.0142 443.221 38.1597 443.019 38.1597C442.817 38.1597 442.654 38.0142 442.654 37.8347C442.654 37.6552 442.817 37.5097 443.019 37.5097C443.221 37.5097 443.385 37.6552 443.385 37.8347Z" fill="#13B3EF"/>
<path d="M498.26 37.8347C498.26 38.0142 498.096 38.1597 497.894 38.1597C497.692 38.1597 497.528 38.0142 497.528 37.8347C497.528 37.6552 497.692 37.5097 497.894 37.5097C498.096 37.5097 498.26 37.6552 498.26 37.8347Z" fill="#13B3EF"/>
<path d="M0.731658 56.5896C0.731658 56.7691 0.567871 56.9146 0.365829 56.9146C0.163787 56.9146 0 56.7691 0 56.5896C0 56.4101 0.163787 56.2646 0.365829 56.2646C0.567871 56.2646 0.731658 56.4101 0.731658 56.5896Z" fill="#13B3EF"/>
<path d="M55.6062 56.5896C55.6062 56.7691 55.4424 56.9146 55.2404 56.9146C55.0383 56.9146 54.8745 56.7691 54.8745 56.5896C54.8745 56.4101 55.0383 56.2646 55.2404 56.2646C55.4424 56.2646 55.6062 56.4101 55.6062 56.5896Z" fill="#13B3EF"/>
<path d="M110.481 56.5896C110.481 56.7691 110.317 56.9146 110.115 56.9146C109.913 56.9146 109.749 56.7691 109.749 56.5896C109.749 56.4101 109.913 56.2646 110.115 56.2646C110.317 56.2646 110.481 56.4101 110.481 56.5896Z" fill="#13B3EF"/>
<path d="M165.354 56.5896C165.354 56.7691 165.191 56.9146 164.989 56.9146C164.787 56.9146 164.623 56.7691 164.623 56.5896C164.623 56.4101 164.787 56.2646 164.989 56.2646C165.191 56.2646 165.354 56.4101 165.354 56.5896Z" fill="#13B3EF"/>
<path d="M220.23 56.5896C220.23 56.7691 220.066 56.9146 219.864 56.9146C219.662 56.9146 219.498 56.7691 219.498 56.5896C219.498 56.4101 219.662 56.2646 219.864 56.2646C220.066 56.2646 220.23 56.4101 220.23 56.5896Z" fill="#13B3EF"/>
<path d="M275.104 56.5896C275.104 56.7691 274.941 56.9146 274.738 56.9146C274.536 56.9146 274.373 56.7691 274.373 56.5896C274.373 56.4101 274.536 56.2646 274.738 56.2646C274.941 56.2646 275.104 56.4101 275.104 56.5896Z" fill="#13B3EF"/>
<path d="M329.979 56.5896C329.979 56.7691 329.815 56.9146 329.613 56.9146C329.411 56.9146 329.247 56.7691 329.247 56.5896C329.247 56.4101 329.411 56.2646 329.613 56.2646C329.815 56.2646 329.979 56.4101 329.979 56.5896Z" fill="#13B3EF"/>
<path d="M384.853 56.5896C384.853 56.7691 384.689 56.9146 384.487 56.9146C384.285 56.9146 384.121 56.7691 384.121 56.5896C384.121 56.4101 384.285 56.2646 384.487 56.2646C384.689 56.2646 384.853 56.4101 384.853 56.5896Z" fill="#13B3EF"/>
<path d="M439.727 56.5896C439.727 56.7691 439.563 56.9146 439.361 56.9146C439.159 56.9146 438.995 56.7691 438.995 56.5896C438.995 56.4101 439.159 56.2646 439.361 56.2646C439.563 56.2646 439.727 56.4101 439.727 56.5896Z" fill="#13B3EF"/>
<path d="M494.602 56.5896C494.602 56.7691 494.438 56.9146 494.236 56.9146C494.034 56.9146 493.87 56.7691 493.87 56.5896C493.87 56.4101 494.034 56.2646 494.236 56.2646C494.438 56.2646 494.602 56.4101 494.602 56.5896Z" fill="#13B3EF"/>
<path d="M26.3398 75.3444C26.3398 75.5239 26.176 75.6694 25.974 75.6694C25.772 75.6694 25.6082 75.5239 25.6082 75.3444C25.6082 75.1649 25.772 75.0194 25.974 75.0194C26.176 75.0194 26.3398 75.1649 26.3398 75.3444Z" fill="#13B3EF"/>
<path d="M81.2144 75.3444C81.2144 75.5239 81.0506 75.6694 80.8485 75.6694C80.6465 75.6694 80.4827 75.5239 80.4827 75.3444C80.4827 75.1649 80.6465 75.0194 80.8485 75.0194C81.0506 75.0194 81.2144 75.1649 81.2144 75.3444Z" fill="#13B3EF"/>
<path d="M136.089 75.3444C136.089 75.5239 135.925 75.6694 135.723 75.6694C135.521 75.6694 135.357 75.5239 135.357 75.3444C135.357 75.1649 135.521 75.0194 135.723 75.0194C135.925 75.0194 136.089 75.1649 136.089 75.3444Z" fill="#13B3EF"/>
<path d="M190.963 75.3444C190.963 75.5239 190.8 75.6694 190.598 75.6694C190.396 75.6694 190.232 75.5239 190.232 75.3444C190.232 75.1649 190.396 75.0194 190.598 75.0194C190.8 75.0194 190.963 75.1649 190.963 75.3444Z" fill="#13B3EF"/>
<path d="M245.837 75.3444C245.837 75.5239 245.673 75.6694 245.471 75.6694C245.269 75.6694 245.105 75.5239 245.105 75.3444C245.105 75.1649 245.269 75.0194 245.471 75.0194C245.673 75.0194 245.837 75.1649 245.837 75.3444Z" fill="#13B3EF"/>
<path d="M300.712 75.3444C300.712 75.5239 300.549 75.6694 300.347 75.6694C300.145 75.6694 299.981 75.5239 299.981 75.3444C299.981 75.1649 300.145 75.0194 300.347 75.0194C300.549 75.0194 300.712 75.1649 300.712 75.3444Z" fill="#13B3EF"/>
<path d="M355.587 75.3444C355.587 75.5239 355.423 75.6694 355.221 75.6694C355.019 75.6694 354.855 75.5239 354.855 75.3444C354.855 75.1649 355.019 75.0194 355.221 75.0194C355.423 75.0194 355.587 75.1649 355.587 75.3444Z" fill="#13B3EF"/>
<path d="M410.461 75.3444C410.461 75.5239 410.297 75.6694 410.095 75.6694C409.893 75.6694 409.729 75.5239 409.729 75.3444C409.729 75.1649 409.893 75.0194 410.095 75.0194C410.297 75.0194 410.461 75.1649 410.461 75.3444Z" fill="#13B3EF"/>
<path d="M465.335 75.3444C465.335 75.5239 465.171 75.6694 464.969 75.6694C464.767 75.6694 464.604 75.5239 464.604 75.3444C464.604 75.1649 464.767 75.0194 464.969 75.0194C465.171 75.0194 465.335 75.1649 465.335 75.3444Z" fill="#13B3EF"/>
<path d="M520.21 75.3444C520.21 75.5239 520.046 75.6694 519.844 75.6694C519.642 75.6694 519.478 75.5239 519.478 75.3444C519.478 75.1649 519.642 75.0194 519.844 75.0194C520.046 75.0194 520.21 75.1649 520.21 75.3444Z" fill="#13B3EF"/>
<path d="M15.3644 94.0993C15.3644 94.2788 15.2006 94.4243 14.9986 94.4243C14.7965 94.4243 14.6328 94.2788 14.6328 94.0993C14.6328 93.9198 14.7965 93.7743 14.9986 93.7743C15.2006 93.7743 15.3644 93.9198 15.3644 94.0993Z" fill="#13B3EF"/>
<path d="M70.2398 94.0993C70.2398 94.2788 70.076 94.4243 69.874 94.4243C69.6719 94.4243 69.5081 94.2788 69.5081 94.0993C69.5081 93.9198 69.6719 93.7743 69.874 93.7743C70.076 93.7743 70.2398 93.9198 70.2398 94.0993Z" fill="#13B3EF"/>
<path d="M125.113 94.0993C125.113 94.2788 124.95 94.4243 124.748 94.4243C124.546 94.4243 124.382 94.2788 124.382 94.0993C124.382 93.9198 124.546 93.7743 124.748 93.7743C124.95 93.7743 125.113 93.9198 125.113 94.0993Z" fill="#13B3EF"/>
<path d="M179.988 94.0993C179.988 94.2788 179.824 94.4243 179.622 94.4243C179.42 94.4243 179.256 94.2788 179.256 94.0993C179.256 93.9198 179.42 93.7743 179.622 93.7743C179.824 93.7743 179.988 93.9198 179.988 94.0993Z" fill="#13B3EF"/>
<path d="M234.863 94.0993C234.863 94.2788 234.699 94.4243 234.497 94.4243C234.295 94.4243 234.131 94.2788 234.131 94.0993C234.131 93.9198 234.295 93.7743 234.497 93.7743C234.699 93.7743 234.863 93.9198 234.863 94.0993Z" fill="#13B3EF"/>
<path d="M289.737 94.0993C289.737 94.2788 289.573 94.4243 289.371 94.4243C289.169 94.4243 289.005 94.2788 289.005 94.0993C289.005 93.9198 289.169 93.7743 289.371 93.7743C289.573 93.7743 289.737 93.9198 289.737 94.0993Z" fill="#13B3EF"/>
<path d="M344.612 94.0993C344.612 94.2788 344.448 94.4243 344.246 94.4243C344.044 94.4243 343.88 94.2788 343.88 94.0993C343.88 93.9198 344.044 93.7743 344.246 93.7743C344.448 93.7743 344.612 93.9198 344.612 94.0993Z" fill="#13B3EF"/>
<path d="M399.486 94.0993C399.486 94.2788 399.322 94.4243 399.12 94.4243C398.918 94.4243 398.754 94.2788 398.754 94.0993C398.754 93.9198 398.918 93.7743 399.12 93.7743C399.322 93.7743 399.486 93.9198 399.486 94.0993Z" fill="#13B3EF"/>
<path d="M454.361 94.0993C454.361 94.2788 454.197 94.4243 453.995 94.4243C453.793 94.4243 453.629 94.2788 453.629 94.0993C453.629 93.9198 453.793 93.7743 453.995 93.7743C454.197 93.7743 454.361 93.9198 454.361 94.0993Z" fill="#13B3EF"/>
<path d="M509.235 94.0993C509.235 94.2788 509.071 94.4243 508.869 94.4243C508.667 94.4243 508.503 94.2788 508.503 94.0993C508.503 93.9198 508.667 93.7743 508.869 93.7743C509.071 93.7743 509.235 93.9198 509.235 94.0993Z" fill="#13B3EF"/>
<path d="M26.3398 112.854C26.3398 113.034 26.176 113.179 25.974 113.179C25.772 113.179 25.6082 113.034 25.6082 112.854C25.6082 112.675 25.772 112.529 25.974 112.529C26.176 112.529 26.3398 112.675 26.3398 112.854Z" fill="#13B3EF"/>
<path d="M81.2144 112.854C81.2144 113.034 81.0506 113.179 80.8485 113.179C80.6465 113.179 80.4827 113.034 80.4827 112.854C80.4827 112.675 80.6465 112.529 80.8485 112.529C81.0506 112.529 81.2144 112.675 81.2144 112.854Z" fill="#13B3EF"/>
<path d="M136.089 112.854C136.089 113.034 135.925 113.179 135.723 113.179C135.521 113.179 135.357 113.034 135.357 112.854C135.357 112.675 135.521 112.529 135.723 112.529C135.925 112.529 136.089 112.675 136.089 112.854Z" fill="#13B3EF"/>
<path d="M190.963 112.854C190.963 113.034 190.8 113.179 190.598 113.179C190.396 113.179 190.232 113.034 190.232 112.854C190.232 112.675 190.396 112.529 190.598 112.529C190.8 112.529 190.963 112.675 190.963 112.854Z" fill="#13B3EF"/>
<path d="M245.837 112.854C245.837 113.034 245.673 113.179 245.471 113.179C245.269 113.179 245.105 113.034 245.105 112.854C245.105 112.675 245.269 112.529 245.471 112.529C245.673 112.529 245.837 112.675 245.837 112.854Z" fill="#13B3EF"/>
<path d="M300.712 112.854C300.712 113.034 300.549 113.179 300.347 113.179C300.145 113.179 299.981 113.034 299.981 112.854C299.981 112.675 300.145 112.529 300.347 112.529C300.549 112.529 300.712 112.675 300.712 112.854Z" fill="#13B3EF"/>
<path d="M355.587 112.854C355.587 113.034 355.423 113.179 355.221 113.179C355.019 113.179 354.855 113.034 354.855 112.854C354.855 112.675 355.019 112.529 355.221 112.529C355.423 112.529 355.587 112.675 355.587 112.854Z" fill="#13B3EF"/>
<path d="M410.461 112.854C410.461 113.034 410.297 113.179 410.095 113.179C409.893 113.179 409.729 113.034 409.729 112.854C409.729 112.675 409.893 112.529 410.095 112.529C410.297 112.529 410.461 112.675 410.461 112.854Z" fill="#13B3EF"/>
<path d="M465.335 112.854C465.335 113.034 465.171 113.179 464.969 113.179C464.767 113.179 464.604 113.034 464.604 112.854C464.604 112.675 464.767 112.529 464.969 112.529C465.171 112.529 465.335 112.675 465.335 112.854Z" fill="#13B3EF"/>
<path d="M520.21 112.854C520.21 113.034 520.046 113.179 519.844 113.179C519.642 113.179 519.478 113.034 519.478 112.854C519.478 112.675 519.642 112.529 519.844 112.529C520.046 112.529 520.21 112.675 520.21 112.854Z" fill="#13B3EF"/>
<path d="M8.04803 131.984C8.04803 132.164 7.88425 132.309 7.6822 132.309C7.48016 132.309 7.31638 132.164 7.31638 131.984C7.31638 131.805 7.48016 131.659 7.6822 131.659C7.88425 131.659 8.04803 131.805 8.04803 131.984Z" fill="#13B3EF"/>
<path d="M62.9226 131.984C62.9226 132.164 62.7588 132.309 62.5567 132.309C62.3547 132.309 62.1909 132.164 62.1909 131.984C62.1909 131.805 62.3547 131.659 62.5567 131.659C62.7588 131.659 62.9226 131.805 62.9226 131.984Z" fill="#13B3EF"/>
<path d="M117.797 131.984C117.797 132.164 117.633 132.309 117.431 132.309C117.229 132.309 117.065 132.164 117.065 131.984C117.065 131.805 117.229 131.659 117.431 131.659C117.633 131.659 117.797 131.805 117.797 131.984Z" fill="#13B3EF"/>
<path d="M172.672 131.984C172.672 132.164 172.508 132.309 172.306 132.309C172.104 132.309 171.94 132.164 171.94 131.984C171.94 131.805 172.104 131.659 172.306 131.659C172.508 131.659 172.672 131.805 172.672 131.984Z" fill="#13B3EF"/>
<path d="M227.545 131.984C227.545 132.164 227.382 132.309 227.179 132.309C226.977 132.309 226.814 132.164 226.814 131.984C226.814 131.805 226.977 131.659 227.179 131.659C227.382 131.659 227.545 131.805 227.545 131.984Z" fill="#13B3EF"/>
<path d="M282.421 131.984C282.421 132.164 282.257 132.309 282.055 132.309C281.853 132.309 281.689 132.164 281.689 131.984C281.689 131.805 281.853 131.659 282.055 131.659C282.257 131.659 282.421 131.805 282.421 131.984Z" fill="#13B3EF"/>
<path d="M337.295 131.984C337.295 132.164 337.132 132.309 336.929 132.309C336.727 132.309 336.564 132.164 336.564 131.984C336.564 131.805 336.727 131.659 336.929 131.659C337.132 131.659 337.295 131.805 337.295 131.984Z" fill="#13B3EF"/>
<path d="M392.169 131.984C392.169 132.164 392.005 132.309 391.803 132.309C391.601 132.309 391.438 132.164 391.438 131.984C391.438 131.805 391.601 131.659 391.803 131.659C392.005 131.659 392.169 131.805 392.169 131.984Z" fill="#13B3EF"/>
<path d="M447.044 131.984C447.044 132.164 446.881 132.309 446.678 132.309C446.476 132.309 446.313 132.164 446.313 131.984C446.313 131.805 446.476 131.659 446.678 131.659C446.881 131.659 447.044 131.805 447.044 131.984Z" fill="#13B3EF"/>
<path d="M501.918 131.984C501.918 132.164 501.754 132.309 501.552 132.309C501.35 132.309 501.186 132.164 501.186 131.984C501.186 131.805 501.35 131.659 501.552 131.659C501.754 131.659 501.918 131.805 501.918 131.984Z" fill="#13B3EF"/>
<path d="M29.998 150.739C29.998 150.918 29.8342 151.064 29.6322 151.064C29.4301 151.064 29.2664 150.918 29.2664 150.739C29.2664 150.559 29.4301 150.414 29.6322 150.414C29.8342 150.414 29.998 150.559 29.998 150.739Z" fill="#13B3EF"/>
<path d="M84.8726 150.739C84.8726 150.918 84.7088 151.064 84.5067 151.064C84.3047 151.064 84.1409 150.918 84.1409 150.739C84.1409 150.559 84.3047 150.414 84.5067 150.414C84.7088 150.414 84.8726 150.559 84.8726 150.739Z" fill="#13B3EF"/>
<path d="M139.747 150.739C139.747 150.918 139.583 151.064 139.381 151.064C139.179 151.064 139.015 150.918 139.015 150.739C139.015 150.559 139.179 150.414 139.381 150.414C139.583 150.414 139.747 150.559 139.747 150.739Z" fill="#13B3EF"/>
<path d="M194.622 150.739C194.622 150.918 194.458 151.064 194.256 151.064C194.054 151.064 193.89 150.918 193.89 150.739C193.89 150.559 194.054 150.414 194.256 150.414C194.458 150.414 194.622 150.559 194.622 150.739Z" fill="#13B3EF"/>
<path d="M249.496 150.739C249.496 150.918 249.332 151.064 249.13 151.064C248.928 151.064 248.764 150.918 248.764 150.739C248.764 150.559 248.928 150.414 249.13 150.414C249.332 150.414 249.496 150.559 249.496 150.739Z" fill="#13B3EF"/>
<path d="M304.371 150.739C304.371 150.918 304.207 151.064 304.005 151.064C303.803 151.064 303.639 150.918 303.639 150.739C303.639 150.559 303.803 150.414 304.005 150.414C304.207 150.414 304.371 150.559 304.371 150.739Z" fill="#13B3EF"/>
<path d="M359.245 150.739C359.245 150.918 359.081 151.064 358.879 151.064C358.677 151.064 358.514 150.918 358.514 150.739C358.514 150.559 358.677 150.414 358.879 150.414C359.081 150.414 359.245 150.559 359.245 150.739Z" fill="#13B3EF"/>
<path d="M414.119 150.739C414.119 150.918 413.955 151.064 413.753 151.064C413.551 151.064 413.387 150.918 413.387 150.739C413.387 150.559 413.551 150.414 413.753 150.414C413.955 150.414 414.119 150.559 414.119 150.739Z" fill="#13B3EF"/>
<path d="M468.993 150.739C468.993 150.918 468.83 151.064 468.628 151.064C468.426 151.064 468.262 150.918 468.262 150.739C468.262 150.559 468.426 150.414 468.628 150.414C468.83 150.414 468.993 150.559 468.993 150.739Z" fill="#13B3EF"/>
<path d="M22.6816 169.494C22.6816 169.673 22.5179 169.819 22.3158 169.819C22.1138 169.819 21.95 169.673 21.95 169.494C21.95 169.314 22.1138 169.169 22.3158 169.169C22.5179 169.169 22.6816 169.314 22.6816 169.494Z" fill="#13B3EF"/>
<path d="M77.5562 169.494C77.5562 169.673 77.3924 169.819 77.1903 169.819C76.9883 169.819 76.8245 169.673 76.8245 169.494C76.8245 169.314 76.9883 169.169 77.1903 169.169C77.3924 169.169 77.5562 169.314 77.5562 169.494Z" fill="#13B3EF"/>
<path d="M132.43 169.494C132.43 169.673 132.266 169.819 132.064 169.819C131.862 169.819 131.698 169.673 131.698 169.494C131.698 169.314 131.862 169.169 132.064 169.169C132.266 169.169 132.43 169.314 132.43 169.494Z" fill="#13B3EF"/>
<path d="M187.304 169.494C187.304 169.673 187.141 169.819 186.939 169.819C186.737 169.819 186.573 169.673 186.573 169.494C186.573 169.314 186.737 169.169 186.939 169.169C187.141 169.169 187.304 169.314 187.304 169.494Z" fill="#13B3EF"/>
<path d="M242.18 169.494C242.18 169.673 242.016 169.819 241.814 169.819C241.612 169.819 241.448 169.673 241.448 169.494C241.448 169.314 241.612 169.169 241.814 169.169C242.016 169.169 242.18 169.314 242.18 169.494Z" fill="#13B3EF"/>
<path d="M297.054 169.494C297.054 169.673 296.89 169.819 296.688 169.819C296.486 169.819 296.323 169.673 296.323 169.494C296.323 169.314 296.486 169.169 296.688 169.169C296.89 169.169 297.054 169.314 297.054 169.494Z" fill="#13B3EF"/>
<path d="M351.928 169.494C351.928 169.673 351.764 169.819 351.562 169.819C351.36 169.819 351.196 169.673 351.196 169.494C351.196 169.314 351.36 169.169 351.562 169.169C351.764 169.169 351.928 169.314 351.928 169.494Z" fill="#13B3EF"/>
<path d="M406.803 169.494C406.803 169.673 406.639 169.819 406.437 169.819C406.235 169.819 406.071 169.673 406.071 169.494C406.071 169.314 406.235 169.169 406.437 169.169C406.639 169.169 406.803 169.314 406.803 169.494Z" fill="#13B3EF"/>
<path d="M461.677 169.494C461.677 169.673 461.513 169.819 461.311 169.819C461.109 169.819 460.945 169.673 460.945 169.494C460.945 169.314 461.109 169.169 461.311 169.169C461.513 169.169 461.677 169.314 461.677 169.494Z" fill="#13B3EF"/>
<path d="M516.552 169.494C516.552 169.673 516.388 169.819 516.186 169.819C515.984 169.819 515.82 169.673 515.82 169.494C515.82 169.314 515.984 169.169 516.186 169.169C516.388 169.169 516.552 169.314 516.552 169.494Z" fill="#13B3EF"/>
<path d="M44.6316 188.249C44.6316 188.428 44.4678 188.574 44.2658 188.574C44.0638 188.574 43.9 188.428 43.9 188.249C43.9 188.069 44.0638 187.924 44.2658 187.924C44.4678 187.924 44.6316 188.069 44.6316 188.249Z" fill="#13B3EF"/>
<path d="M99.5062 188.249C99.5062 188.428 99.3424 188.574 99.1403 188.574C98.9383 188.574 98.7745 188.428 98.7745 188.249C98.7745 188.069 98.9383 187.924 99.1403 187.924C99.3424 187.924 99.5062 188.069 99.5062 188.249Z" fill="#13B3EF"/>
<path d="M154.38 188.249C154.38 188.428 154.216 188.574 154.014 188.574C153.812 188.574 153.648 188.428 153.648 188.249C153.648 188.069 153.812 187.924 154.014 187.924C154.216 187.924 154.38 188.069 154.38 188.249Z" fill="#13B3EF"/>
<path d="M209.254 188.249C209.254 188.428 209.09 188.574 208.888 188.574C208.686 188.574 208.522 188.428 208.522 188.249C208.522 188.069 208.686 187.924 208.888 187.924C209.09 187.924 209.254 188.069 209.254 188.249Z" fill="#13B3EF"/>
<path d="M264.129 188.249C264.129 188.428 263.965 188.574 263.763 188.574C263.561 188.574 263.397 188.428 263.397 188.249C263.397 188.069 263.561 187.924 263.763 187.924C263.965 187.924 264.129 188.069 264.129 188.249Z" fill="#13B3EF"/>
<path d="M319.003 188.249C319.003 188.428 318.84 188.574 318.638 188.574C318.436 188.574 318.272 188.428 318.272 188.249C318.272 188.069 318.436 187.924 318.638 187.924C318.84 187.924 319.003 188.069 319.003 188.249Z" fill="#13B3EF"/>
<path d="M373.878 188.249C373.878 188.428 373.714 188.574 373.512 188.574C373.31 188.574 373.146 188.428 373.146 188.249C373.146 188.069 373.31 187.924 373.512 187.924C373.714 187.924 373.878 188.069 373.878 188.249Z" fill="#13B3EF"/>
<path d="M428.753 188.249C428.753 188.428 428.589 188.574 428.387 188.574C428.185 188.574 428.021 188.428 428.021 188.249C428.021 188.069 428.185 187.924 428.387 187.924C428.589 187.924 428.753 188.069 428.753 188.249Z" fill="#13B3EF"/>
<path d="M483.626 188.249C483.626 188.428 483.462 188.574 483.26 188.574C483.058 188.574 482.895 188.428 482.895 188.249C482.895 188.069 483.058 187.924 483.26 187.924C483.462 187.924 483.626 188.069 483.626 188.249Z" fill="#13B3EF"/>
<path d="M538.502 188.249C538.502 188.428 538.338 188.574 538.136 188.574C537.934 188.574 537.77 188.428 537.77 188.249C537.77 188.069 537.934 187.924 538.136 187.924C538.338 187.924 538.502 188.069 538.502 188.249Z" fill="#13B3EF"/>
<path d="M15.3644 207.003C15.3644 207.183 15.2006 207.328 14.9986 207.328C14.7965 207.328 14.6328 207.183 14.6328 207.003C14.6328 206.824 14.7965 206.678 14.9986 206.678C15.2006 206.678 15.3644 206.824 15.3644 207.003Z" fill="#13B3EF"/>
<path d="M70.2398 207.003C70.2398 207.183 70.076 207.328 69.874 207.328C69.6719 207.328 69.5081 207.183 69.5081 207.003C69.5081 206.824 69.6719 206.678 69.874 206.678C70.076 206.678 70.2398 206.824 70.2398 207.003Z" fill="#13B3EF"/>
<path d="M125.113 207.003C125.113 207.183 124.95 207.328 124.748 207.328C124.546 207.328 124.382 207.183 124.382 207.003C124.382 206.824 124.546 206.678 124.748 206.678C124.95 206.678 125.113 206.824 125.113 207.003Z" fill="#13B3EF"/>
<path d="M179.988 207.003C179.988 207.183 179.824 207.328 179.622 207.328C179.42 207.328 179.256 207.183 179.256 207.003C179.256 206.824 179.42 206.678 179.622 206.678C179.824 206.678 179.988 206.824 179.988 207.003Z" fill="#13B3EF"/>
<path d="M234.863 207.003C234.863 207.183 234.699 207.328 234.497 207.328C234.295 207.328 234.131 207.183 234.131 207.003C234.131 206.824 234.295 206.678 234.497 206.678C234.699 206.678 234.863 206.824 234.863 207.003Z" fill="#13B3EF"/>
<path d="M289.737 207.003C289.737 207.183 289.573 207.328 289.371 207.328C289.169 207.328 289.005 207.183 289.005 207.003C289.005 206.824 289.169 206.678 289.371 206.678C289.573 206.678 289.737 206.824 289.737 207.003Z" fill="#13B3EF"/>
<path d="M344.612 207.003C344.612 207.183 344.448 207.328 344.246 207.328C344.044 207.328 343.88 207.183 343.88 207.003C343.88 206.824 344.044 206.678 344.246 206.678C344.448 206.678 344.612 206.824 344.612 207.003Z" fill="#13B3EF"/>
<path d="M399.486 207.003C399.486 207.183 399.322 207.328 399.12 207.328C398.918 207.328 398.754 207.183 398.754 207.003C398.754 206.824 398.918 206.678 399.12 206.678C399.322 206.678 399.486 206.824 399.486 207.003Z" fill="#13B3EF"/>
<path d="M454.361 207.003C454.361 207.183 454.197 207.328 453.995 207.328C453.793 207.328 453.629 207.183 453.629 207.003C453.629 206.824 453.793 206.678 453.995 206.678C454.197 206.678 454.361 206.824 454.361 207.003Z" fill="#13B3EF"/>
<path d="M509.235 207.003C509.235 207.183 509.071 207.328 508.869 207.328C508.667 207.328 508.503 207.183 508.503 207.003C508.503 206.824 508.667 206.678 508.869 206.678C509.071 206.678 509.235 206.824 509.235 207.003Z" fill="#13B3EF"/>
<path d="M26.3398 225.758C26.3398 225.938 26.176 226.083 25.974 226.083C25.772 226.083 25.6082 225.938 25.6082 225.758C25.6082 225.579 25.772 225.433 25.974 225.433C26.176 225.433 26.3398 225.579 26.3398 225.758Z" fill="#13B3EF"/>
<path d="M81.2144 225.758C81.2144 225.938 81.0506 226.083 80.8485 226.083C80.6465 226.083 80.4827 225.938 80.4827 225.758C80.4827 225.579 80.6465 225.433 80.8485 225.433C81.0506 225.433 81.2144 225.579 81.2144 225.758Z" fill="#13B3EF"/>
<path d="M136.089 225.758C136.089 225.938 135.925 226.083 135.723 226.083C135.521 226.083 135.357 225.938 135.357 225.758C135.357 225.579 135.521 225.433 135.723 225.433C135.925 225.433 136.089 225.579 136.089 225.758Z" fill="#13B3EF"/>
<path d="M190.963 225.758C190.963 225.938 190.8 226.083 190.598 226.083C190.396 226.083 190.232 225.938 190.232 225.758C190.232 225.579 190.396 225.433 190.598 225.433C190.8 225.433 190.963 225.579 190.963 225.758Z" fill="#13B3EF"/>
<path d="M245.837 225.758C245.837 225.938 245.673 226.083 245.471 226.083C245.269 226.083 245.105 225.938 245.105 225.758C245.105 225.579 245.269 225.433 245.471 225.433C245.673 225.433 245.837 225.579 245.837 225.758Z" fill="#13B3EF"/>
<path d="M300.712 225.758C300.712 225.938 300.549 226.083 300.347 226.083C300.145 226.083 299.981 225.938 299.981 225.758C299.981 225.579 300.145 225.433 300.347 225.433C300.549 225.433 300.712 225.579 300.712 225.758Z" fill="#13B3EF"/>
<path d="M355.587 225.758C355.587 225.938 355.423 226.083 355.221 226.083C355.019 226.083 354.855 225.938 354.855 225.758C354.855 225.579 355.019 225.433 355.221 225.433C355.423 225.433 355.587 225.579 355.587 225.758Z" fill="#13B3EF"/>
<path d="M410.461 225.758C410.461 225.938 410.297 226.083 410.095 226.083C409.893 226.083 409.729 225.938 409.729 225.758C409.729 225.579 409.893 225.433 410.095 225.433C410.297 225.433 410.461 225.579 410.461 225.758Z" fill="#13B3EF"/>
<path d="M465.335 225.758C465.335 225.938 465.171 226.083 464.969 226.083C464.767 226.083 464.604 225.938 464.604 225.758C464.604 225.579 464.767 225.433 464.969 225.433C465.171 225.433 465.335 225.579 465.335 225.758Z" fill="#13B3EF"/>
<path d="M520.21 225.758C520.21 225.938 520.046 226.083 519.844 226.083C519.642 226.083 519.478 225.938 519.478 225.758C519.478 225.579 519.642 225.433 519.844 225.433C520.046 225.433 520.21 225.579 520.21 225.758Z" fill="#13B3EF"/>
<path d="M51.948 246.389C51.948 246.568 51.7842 246.714 51.5822 246.714C51.3801 246.714 51.2163 246.568 51.2163 246.389C51.2163 246.209 51.3801 246.064 51.5822 246.064C51.7842 246.064 51.948 246.209 51.948 246.389Z" fill="#13B3EF"/>
<path d="M106.823 246.389C106.823 246.568 106.659 246.714 106.457 246.714C106.255 246.714 106.091 246.568 106.091 246.389C106.091 246.209 106.255 246.064 106.457 246.064C106.659 246.064 106.823 246.209 106.823 246.389Z" fill="#13B3EF"/>
<path d="M161.696 246.389C161.696 246.568 161.532 246.714 161.33 246.714C161.128 246.714 160.965 246.568 160.965 246.389C160.965 246.209 161.128 246.064 161.33 246.064C161.532 246.064 161.696 246.209 161.696 246.389Z" fill="#13B3EF"/>
<path d="M216.572 246.389C216.572 246.568 216.408 246.714 216.206 246.714C216.004 246.714 215.84 246.568 215.84 246.389C215.84 246.209 216.004 246.064 216.206 246.064C216.408 246.064 216.572 246.209 216.572 246.389Z" fill="#13B3EF"/>
<path d="M271.446 246.389C271.446 246.568 271.282 246.714 271.08 246.714C270.878 246.714 270.714 246.568 270.714 246.389C270.714 246.209 270.878 246.064 271.08 246.064C271.282 246.064 271.446 246.209 271.446 246.389Z" fill="#13B3EF"/>
<path d="M326.321 246.389C326.321 246.568 326.157 246.714 325.955 246.714C325.753 246.714 325.589 246.568 325.589 246.389C325.589 246.209 325.753 246.064 325.955 246.064C326.157 246.064 326.321 246.209 326.321 246.389Z" fill="#13B3EF"/>
<path d="M381.194 246.389C381.194 246.568 381.031 246.714 380.829 246.714C380.626 246.714 380.463 246.568 380.463 246.389C380.463 246.209 380.626 246.064 380.829 246.064C381.031 246.064 381.194 246.209 381.194 246.389Z" fill="#13B3EF"/>
<path d="M436.069 246.389C436.069 246.568 435.905 246.714 435.703 246.714C435.501 246.714 435.337 246.568 435.337 246.389C435.337 246.209 435.501 246.064 435.703 246.064C435.905 246.064 436.069 246.209 436.069 246.389Z" fill="#13B3EF"/>
<path d="M490.943 246.389C490.943 246.568 490.78 246.714 490.578 246.714C490.376 246.714 490.212 246.568 490.212 246.389C490.212 246.209 490.376 246.064 490.578 246.064C490.78 246.064 490.943 246.209 490.943 246.389Z" fill="#13B3EF"/>
<path d="M545.818 246.389C545.818 246.568 545.654 246.714 545.452 246.714C545.25 246.714 545.086 246.568 545.086 246.389C545.086 246.209 545.25 246.064 545.452 246.064C545.654 246.064 545.818 246.209 545.818 246.389Z" fill="#13B3EF"/>
<path d="M29.998 267.019C29.998 267.199 29.8342 267.344 29.6322 267.344C29.4301 267.344 29.2664 267.199 29.2664 267.019C29.2664 266.84 29.4301 266.694 29.6322 266.694C29.8342 266.694 29.998 266.84 29.998 267.019Z" fill="#13B3EF"/>
<path d="M84.8726 267.019C84.8726 267.199 84.7088 267.344 84.5067 267.344C84.3047 267.344 84.1409 267.199 84.1409 267.019C84.1409 266.84 84.3047 266.694 84.5067 266.694C84.7088 266.694 84.8726 266.84 84.8726 267.019Z" fill="#13B3EF"/>
<path d="M139.747 267.019C139.747 267.199 139.583 267.344 139.381 267.344C139.179 267.344 139.015 267.199 139.015 267.019C139.015 266.84 139.179 266.694 139.381 266.694C139.583 266.694 139.747 266.84 139.747 267.019Z" fill="#13B3EF"/>
<path d="M194.622 267.019C194.622 267.199 194.458 267.344 194.256 267.344C194.054 267.344 193.89 267.199 193.89 267.019C193.89 266.84 194.054 266.694 194.256 266.694C194.458 266.694 194.622 266.84 194.622 267.019Z" fill="#13B3EF"/>
<path d="M249.496 267.019C249.496 267.199 249.332 267.344 249.13 267.344C248.928 267.344 248.764 267.199 248.764 267.019C248.764 266.84 248.928 266.694 249.13 266.694C249.332 266.694 249.496 266.84 249.496 267.019Z" fill="#13B3EF"/>
<path d="M304.371 267.019C304.371 267.199 304.207 267.344 304.005 267.344C303.803 267.344 303.639 267.199 303.639 267.019C303.639 266.84 303.803 266.694 304.005 266.694C304.207 266.694 304.371 266.84 304.371 267.019Z" fill="#13B3EF"/>
<path d="M359.245 267.019C359.245 267.199 359.081 267.344 358.879 267.344C358.677 267.344 358.514 267.199 358.514 267.019C358.514 266.84 358.677 266.694 358.879 266.694C359.081 266.694 359.245 266.84 359.245 267.019Z" fill="#13B3EF"/>
<path d="M414.119 267.019C414.119 267.199 413.955 267.344 413.753 267.344C413.551 267.344 413.387 267.199 413.387 267.019C413.387 266.84 413.551 266.694 413.753 266.694C413.955 266.694 414.119 266.84 414.119 267.019Z" fill="#13B3EF"/>
<path d="M468.993 267.019C468.993 267.199 468.83 267.344 468.628 267.344C468.426 267.344 468.262 267.199 468.262 267.019C468.262 266.84 468.426 266.694 468.628 266.694C468.83 266.694 468.993 266.84 468.993 267.019Z" fill="#13B3EF"/>
<path d="M523.868 267.019C523.868 267.199 523.704 267.344 523.502 267.344C523.3 267.344 523.136 267.199 523.136 267.019C523.136 266.84 523.3 266.694 523.502 266.694C523.704 266.694 523.868 266.84 523.868 267.019Z" fill="#13B3EF"/>
<path d="M59.2644 287.274C59.2644 287.454 59.1006 287.599 58.8986 287.599C58.6965 287.599 58.5327 287.454 58.5327 287.274C58.5327 287.095 58.6965 286.949 58.8986 286.949C59.1006 286.949 59.2644 287.095 59.2644 287.274Z" fill="#13B3EF"/>
<path d="M114.139 287.274C114.139 287.454 113.975 287.599 113.773 287.599C113.571 287.599 113.407 287.454 113.407 287.274C113.407 287.095 113.571 286.949 113.773 286.949C113.975 286.949 114.139 287.095 114.139 287.274Z" fill="#13B3EF"/>
<path d="M169.013 287.274C169.013 287.454 168.849 287.599 168.647 287.599C168.445 287.599 168.281 287.454 168.281 287.274C168.281 287.095 168.445 286.949 168.647 286.949C168.849 286.949 169.013 287.095 169.013 287.274Z" fill="#13B3EF"/>
<path d="M223.888 287.274C223.888 287.454 223.724 287.599 223.522 287.599C223.32 287.599 223.156 287.454 223.156 287.274C223.156 287.095 223.32 286.949 223.522 286.949C223.724 286.949 223.888 287.095 223.888 287.274Z" fill="#13B3EF"/>
<path d="M278.762 287.274C278.762 287.454 278.599 287.599 278.397 287.599C278.195 287.599 278.031 287.454 278.031 287.274C278.031 287.095 278.195 286.949 278.397 286.949C278.599 286.949 278.762 287.095 278.762 287.274Z" fill="#13B3EF"/>
<path d="M333.637 287.274C333.637 287.454 333.473 287.599 333.271 287.599C333.069 287.599 332.905 287.454 332.905 287.274C332.905 287.095 333.069 286.949 333.271 286.949C333.473 286.949 333.637 287.095 333.637 287.274Z" fill="#13B3EF"/>
<path d="M388.511 287.274C388.511 287.454 388.347 287.599 388.145 287.599C387.943 287.599 387.779 287.454 387.779 287.274C387.779 287.095 387.943 286.949 388.145 286.949C388.347 286.949 388.511 287.095 388.511 287.274Z" fill="#13B3EF"/>
<path d="M443.385 287.274C443.385 287.454 443.221 287.599 443.019 287.599C442.817 287.599 442.654 287.454 442.654 287.274C442.654 287.095 442.817 286.949 443.019 286.949C443.221 286.949 443.385 287.095 443.385 287.274Z" fill="#13B3EF"/>
<path d="M498.26 287.274C498.26 287.454 498.096 287.599 497.894 287.599C497.692 287.599 497.528 287.454 497.528 287.274C497.528 287.095 497.692 286.949 497.894 286.949C498.096 286.949 498.26 287.095 498.26 287.274Z" fill="#13B3EF"/>
<path d="M37.3144 307.905C37.3144 308.084 37.1506 308.23 36.9486 308.23C36.7465 308.23 36.5827 308.084 36.5827 307.905C36.5827 307.725 36.7465 307.58 36.9486 307.58C37.1506 307.58 37.3144 307.725 37.3144 307.905Z" fill="#13B3EF"/>
<path d="M92.1898 307.905C92.1898 308.084 92.026 308.23 91.824 308.23C91.6219 308.23 91.4581 308.084 91.4581 307.905C91.4581 307.725 91.6219 307.58 91.824 307.58C92.026 307.58 92.1898 307.725 92.1898 307.905Z" fill="#13B3EF"/>
<path d="M147.063 307.905C147.063 308.084 146.9 308.23 146.698 308.23C146.496 308.23 146.332 308.084 146.332 307.905C146.332 307.725 146.496 307.58 146.698 307.58C146.9 307.58 147.063 307.725 147.063 307.905Z" fill="#13B3EF"/>
<path d="M201.938 307.905C201.938 308.084 201.774 308.23 201.572 308.23C201.37 308.23 201.206 308.084 201.206 307.905C201.206 307.725 201.37 307.58 201.572 307.58C201.774 307.58 201.938 307.725 201.938 307.905Z" fill="#13B3EF"/>
<path d="M256.812 307.905C256.812 308.084 256.649 308.23 256.447 308.23C256.245 308.23 256.081 308.084 256.081 307.905C256.081 307.725 256.245 307.58 256.447 307.58C256.649 307.58 256.812 307.725 256.812 307.905Z" fill="#13B3EF"/>
<path d="M311.687 307.905C311.687 308.084 311.523 308.23 311.321 308.23C311.119 308.23 310.955 308.084 310.955 307.905C310.955 307.725 311.119 307.58 311.321 307.58C311.523 307.58 311.687 307.725 311.687 307.905Z" fill="#13B3EF"/>
<path d="M366.562 307.905C366.562 308.084 366.398 308.23 366.196 308.23C365.994 308.23 365.83 308.084 365.83 307.905C365.83 307.725 365.994 307.58 366.196 307.58C366.398 307.58 366.562 307.725 366.562 307.905Z" fill="#13B3EF"/>
<path d="M421.435 307.905C421.435 308.084 421.272 308.23 421.069 308.23C420.867 308.23 420.704 308.084 420.704 307.905C420.704 307.725 420.867 307.58 421.069 307.58C421.272 307.58 421.435 307.725 421.435 307.905Z" fill="#13B3EF"/>
<path d="M476.31 307.905C476.31 308.084 476.146 308.23 475.944 308.23C475.742 308.23 475.578 308.084 475.578 307.905C475.578 307.725 475.742 307.58 475.944 307.58C476.146 307.58 476.31 307.725 476.31 307.905Z" fill="#13B3EF"/>
<path d="M531.184 307.905C531.184 308.084 531.021 308.23 530.818 308.23C530.616 308.23 530.453 308.084 530.453 307.905C530.453 307.725 530.616 307.58 530.818 307.58C531.021 307.58 531.184 307.725 531.184 307.905Z" fill="#13B3EF"/>
<path d="M15.3644 328.535C15.3644 328.715 15.2006 328.86 14.9986 328.86C14.7965 328.86 14.6328 328.715 14.6328 328.535C14.6328 328.356 14.7965 328.21 14.9986 328.21C15.2006 328.21 15.3644 328.356 15.3644 328.535Z" fill="#13B3EF"/>
<path d="M70.2398 328.535C70.2398 328.715 70.076 328.86 69.874 328.86C69.6719 328.86 69.5081 328.715 69.5081 328.535C69.5081 328.356 69.6719 328.21 69.874 328.21C70.076 328.21 70.2398 328.356 70.2398 328.535Z" fill="#13B3EF"/>
<path d="M125.113 328.535C125.113 328.715 124.95 328.86 124.748 328.86C124.546 328.86 124.382 328.715 124.382 328.535C124.382 328.356 124.546 328.21 124.748 328.21C124.95 328.21 125.113 328.356 125.113 328.535Z" fill="#13B3EF"/>
<path d="M179.988 328.535C179.988 328.715 179.824 328.86 179.622 328.86C179.42 328.86 179.256 328.715 179.256 328.535C179.256 328.356 179.42 328.21 179.622 328.21C179.824 328.21 179.988 328.356 179.988 328.535Z" fill="#13B3EF"/>
<path d="M234.863 328.535C234.863 328.715 234.699 328.86 234.497 328.86C234.295 328.86 234.131 328.715 234.131 328.535C234.131 328.356 234.295 328.21 234.497 328.21C234.699 328.21 234.863 328.356 234.863 328.535Z" fill="#13B3EF"/>
<path d="M289.737 328.535C289.737 328.715 289.573 328.86 289.371 328.86C289.169 328.86 289.005 328.715 289.005 328.535C289.005 328.356 289.169 328.21 289.371 328.21C289.573 328.21 289.737 328.356 289.737 328.535Z" fill="#13B3EF"/>
<path d="M344.612 328.535C344.612 328.715 344.448 328.86 344.246 328.86C344.044 328.86 343.88 328.715 343.88 328.535C343.88 328.356 344.044 328.21 344.246 328.21C344.448 328.21 344.612 328.356 344.612 328.535Z" fill="#13B3EF"/>
<path d="M399.486 328.535C399.486 328.715 399.322 328.86 399.12 328.86C398.918 328.86 398.754 328.715 398.754 328.535C398.754 328.356 398.918 328.21 399.12 328.21C399.322 328.21 399.486 328.356 399.486 328.535Z" fill="#13B3EF"/>
<path d="M454.361 328.535C454.361 328.715 454.197 328.86 453.995 328.86C453.793 328.86 453.629 328.715 453.629 328.535C453.629 328.356 453.793 328.21 453.995 328.21C454.197 328.21 454.361 328.356 454.361 328.535Z" fill="#13B3EF"/>
<path d="M509.235 328.535C509.235 328.715 509.071 328.86 508.869 328.86C508.667 328.86 508.503 328.715 508.503 328.535C508.503 328.356 508.667 328.21 508.869 328.21C509.071 328.21 509.235 328.356 509.235 328.535Z" fill="#13B3EF"/>
<path d="M37.3144 349.165C37.3144 349.345 37.1506 349.49 36.9486 349.49C36.7465 349.49 36.5827 349.345 36.5827 349.165C36.5827 348.986 36.7465 348.84 36.9486 348.84C37.1506 348.84 37.3144 348.986 37.3144 349.165Z" fill="#13B3EF"/>
<path d="M92.1898 349.165C92.1898 349.345 92.026 349.49 91.824 349.49C91.6219 349.49 91.4581 349.345 91.4581 349.165C91.4581 348.986 91.6219 348.84 91.824 348.84C92.026 348.84 92.1898 348.986 92.1898 349.165Z" fill="#13B3EF"/>
<path d="M147.063 349.165C147.063 349.345 146.9 349.49 146.698 349.49C146.496 349.49 146.332 349.345 146.332 349.165C146.332 348.986 146.496 348.84 146.698 348.84C146.9 348.84 147.063 348.986 147.063 349.165Z" fill="#13B3EF"/>
<path d="M201.938 349.165C201.938 349.345 201.774 349.49 201.572 349.49C201.37 349.49 201.206 349.345 201.206 349.165C201.206 348.986 201.37 348.84 201.572 348.84C201.774 348.84 201.938 348.986 201.938 349.165Z" fill="#13B3EF"/>
<path d="M256.812 349.165C256.812 349.345 256.649 349.49 256.447 349.49C256.245 349.49 256.081 349.345 256.081 349.165C256.081 348.986 256.245 348.84 256.447 348.84C256.649 348.84 256.812 348.986 256.812 349.165Z" fill="#13B3EF"/>
<path d="M311.687 349.165C311.687 349.345 311.523 349.49 311.321 349.49C311.119 349.49 310.955 349.345 310.955 349.165C310.955 348.986 311.119 348.84 311.321 348.84C311.523 348.84 311.687 348.986 311.687 349.165Z" fill="#13B3EF"/>
<path d="M366.562 349.165C366.562 349.345 366.398 349.49 366.196 349.49C365.994 349.49 365.83 349.345 365.83 349.165C365.83 348.986 365.994 348.84 366.196 348.84C366.398 348.84 366.562 348.986 366.562 349.165Z" fill="#13B3EF"/>
<path d="M421.435 349.165C421.435 349.345 421.272 349.49 421.069 349.49C420.867 349.49 420.704 349.345 420.704 349.165C420.704 348.986 420.867 348.84 421.069 348.84C421.272 348.84 421.435 348.986 421.435 349.165Z" fill="#13B3EF"/>
<path d="M476.31 349.165C476.31 349.345 476.146 349.49 475.944 349.49C475.742 349.49 475.578 349.345 475.578 349.165C475.578 348.986 475.742 348.84 475.944 348.84C476.146 348.84 476.31 348.986 476.31 349.165Z" fill="#13B3EF"/>
<path d="M22.6816 367.92C22.6816 368.1 22.5179 368.245 22.3158 368.245C22.1138 368.245 21.95 368.1 21.95 367.92C21.95 367.741 22.1138 367.595 22.3158 367.595C22.5179 367.595 22.6816 367.741 22.6816 367.92Z" fill="#13B3EF"/>
<path d="M77.5562 367.92C77.5562 368.1 77.3924 368.245 77.1903 368.245C76.9883 368.245 76.8245 368.1 76.8245 367.92C76.8245 367.741 76.9883 367.595 77.1903 367.595C77.3924 367.595 77.5562 367.741 77.5562 367.92Z" fill="#13B3EF"/>
<path d="M132.43 367.92C132.43 368.1 132.266 368.245 132.064 368.245C131.862 368.245 131.698 368.1 131.698 367.92C131.698 367.741 131.862 367.595 132.064 367.595C132.266 367.595 132.43 367.741 132.43 367.92Z" fill="#13B3EF"/>
<path d="M187.304 367.92C187.304 368.1 187.141 368.245 186.939 368.245C186.737 368.245 186.573 368.1 186.573 367.92C186.573 367.741 186.737 367.595 186.939 367.595C187.141 367.595 187.304 367.741 187.304 367.92Z" fill="#13B3EF"/>
<path d="M242.18 367.92C242.18 368.1 242.016 368.245 241.814 368.245C241.612 368.245 241.448 368.1 241.448 367.92C241.448 367.741 241.612 367.595 241.814 367.595C242.016 367.595 242.18 367.741 242.18 367.92Z" fill="#13B3EF"/>
<path d="M297.054 367.92C297.054 368.1 296.89 368.245 296.688 368.245C296.486 368.245 296.323 368.1 296.323 367.92C296.323 367.741 296.486 367.595 296.688 367.595C296.89 367.595 297.054 367.741 297.054 367.92Z" fill="#13B3EF"/>
<path d="M351.928 367.92C351.928 368.1 351.764 368.245 351.562 368.245C351.36 368.245 351.196 368.1 351.196 367.92C351.196 367.741 351.36 367.595 351.562 367.595C351.764 367.595 351.928 367.741 351.928 367.92Z" fill="#13B3EF"/>
<path d="M406.803 367.92C406.803 368.1 406.639 368.245 406.437 368.245C406.235 368.245 406.071 368.1 406.071 367.92C406.071 367.741 406.235 367.595 406.437 367.595C406.639 367.595 406.803 367.741 406.803 367.92Z" fill="#13B3EF"/>
<path d="M461.677 367.92C461.677 368.1 461.513 368.245 461.311 368.245C461.109 368.245 460.945 368.1 460.945 367.92C460.945 367.741 461.109 367.595 461.311 367.595C461.513 367.595 461.677 367.741 461.677 367.92Z" fill="#13B3EF"/>
<path d="M461.677 367.92C461.677 368.1 461.513 368.245 461.311 368.245C461.109 368.245 460.945 368.1 460.945 367.92C460.945 367.741 461.109 367.595 461.311 367.595C461.513 367.595 461.677 367.741 461.677 367.92Z" fill="#13B3EF"/>
<path d="M51.948 386.675C51.948 386.855 51.7842 387 51.5822 387C51.3801 387 51.2163 386.855 51.2163 386.675C51.2163 386.496 51.3801 386.35 51.5822 386.35C51.7842 386.35 51.948 386.496 51.948 386.675Z" fill="#13B3EF"/>
<path d="M106.823 386.675C106.823 386.855 106.659 387 106.457 387C106.255 387 106.091 386.855 106.091 386.675C106.091 386.496 106.255 386.35 106.457 386.35C106.659 386.35 106.823 386.496 106.823 386.675Z" fill="#13B3EF"/>
<path d="M161.696 386.675C161.696 386.855 161.532 387 161.33 387C161.128 387 160.965 386.855 160.965 386.675C160.965 386.496 161.128 386.35 161.33 386.35C161.532 386.35 161.696 386.496 161.696 386.675Z" fill="#13B3EF"/>
<path d="M216.572 386.675C216.572 386.855 216.408 387 216.206 387C216.004 387 215.84 386.855 215.84 386.675C215.84 386.496 216.004 386.35 216.206 386.35C216.408 386.35 216.572 386.496 216.572 386.675Z" fill="#13B3EF"/>
<path d="M271.446 386.675C271.446 386.855 271.282 387 271.08 387C270.878 387 270.714 386.855 270.714 386.675C270.714 386.496 270.878 386.35 271.08 386.35C271.282 386.35 271.446 386.496 271.446 386.675Z" fill="#13B3EF"/>
<path d="M326.321 386.675C326.321 386.855 326.157 387 325.955 387C325.753 387 325.589 386.855 325.589 386.675C325.589 386.496 325.753 386.35 325.955 386.35C326.157 386.35 326.321 386.496 326.321 386.675Z" fill="#13B3EF"/>
<path d="M381.194 386.675C381.194 386.855 381.031 387 380.829 387C380.626 387 380.463 386.855 380.463 386.675C380.463 386.496 380.626 386.35 380.829 386.35C381.031 386.35 381.194 386.496 381.194 386.675Z" fill="#13B3EF"/>
<path d="M436.069 386.675C436.069 386.855 435.905 387 435.703 387C435.501 387 435.337 386.855 435.337 386.675C435.337 386.496 435.501 386.35 435.703 386.35C435.905 386.35 436.069 386.496 436.069 386.675Z" fill="#13B3EF"/>
<path d="M490.943 386.675C490.943 386.855 490.78 387 490.578 387C490.376 387 490.212 386.855 490.212 386.675C490.212 386.496 490.376 386.35 490.578 386.35C490.78 386.35 490.943 386.496 490.943 386.675Z" fill="#13B3EF"/>
<path d="M531.184 349.165C531.184 349.345 531.021 349.49 530.818 349.49C530.616 349.49 530.453 349.345 530.453 349.165C530.453 348.986 530.616 348.84 530.818 348.84C531.021 348.84 531.184 348.986 531.184 349.165Z" fill="#13B3EF"/>
</svg>
